  0
SECTION
  2
HEADER
  9
$ACADVER
  1
AC1024
  9
$ACADMAINTVER
 70
6
  9
$DWGCODEPAGE
  3
ANSI_1252
  9
$LASTSAVEDBY
  1
ezdxf
  9
$INSBASE
 10
0.0
 20
0.0
 30
0.0
  9
$EXTMIN
 10
1e+20
 20
1e+20
 30
1e+20
  9
$EXTMAX
 10
-1e+20
 20
-1e+20
 30
-1e+20
  9
$LIMMIN
 10
0.0
 20
0.0
  9
$LIMMAX
 10
420.0
 20
297.0
  9
$ORTHOMODE
 70
0
  9
$REGENMODE
 70
1
  9
$FILLMODE
 70
1
  9
$QTEXTMODE
 70
0
  9
$MIRRTEXT
 70
1
  9
$LTSCALE
 40
1.0
  9
$ATTMODE
 70
1
  9
$TEXTSIZE
 40
2.5
  9
$TRACEWID
 40
1.0
  9
$TEXTSTYLE
  7
Standard
  9
$CLAYER
  8
0
  9
$CELTYPE
  6
ByLayer
  9
$CECOLOR
 62
256
  9
$CELTSCALE
 40
1.0
  9
$DISPSILH
 70
0
  9
$DIMSCALE
 40
1.0
  9
$DIMASZ
 40
2.5
  9
$DIMEXO
 40
0.625
  9
$DIMDLI
 40
3.75
  9
$DIMRND
 40
0.0
  9
$DIMDLE
 40
0.0
  9
$DIMEXE
 40
1.25
  9
$DIMTP
 40
0.0
  9
$DIMTM
 40
0.0
  9
$DIMTXT
 40
2.5
  9
$DIMCEN
 40
2.5
  9
$DIMTSZ
 40
0.0
  9
$DIMTOL
 70
0
  9
$DIMLIM
 70
0
  9
$DIMTIH
 70
0
  9
$DIMTOH
 70
0
  9
$DIMSE1
 70
0
  9
$DIMSE2
 70
0
  9
$DIMTAD
 70
1
  9
$DIMZIN
 70
8
  9
$DIMBLK
  1

  9
$DIMASO
 70
1
  9
$DIMSHO
 70
1
  9
$DIMPOST
  1

  9
$DIMAPOST
  1

  9
$DIMALT
 70
0
  9
$DIMALTD
 70
3
  9
$DIMALTF
 40
0.03937007874
  9
$DIMLFAC
 40
1.0
  9
$DIMTOFL
 70
1
  9
$DIMTVP
 40
0.0
  9
$DIMTIX
 70
0
  9
$DIMSOXD
 70
0
  9
$DIMSAH
 70
0
  9
$DIMBLK1
  1

  9
$DIMBLK2
  1

  9
$DIMSTYLE
  2
ISO-25
  9
$DIMCLRD
 70
0
  9
$DIMCLRE
 70
0
  9
$DIMCLRT
 70
0
  9
$DIMTFAC
 40
1.0
  9
$DIMGAP
 40
0.625
  9
$DIMJUST
 70
0
  9
$DIMSD1
 70
0
  9
$DIMSD2
 70
0
  9
$DIMTOLJ
 70
0
  9
$DIMTZIN
 70
8
  9
$DIMALTZ
 70
0
  9
$DIMALTTZ
 70
0
  9
$DIMUPT
 70
0
  9
$DIMDEC
 70
2
  9
$DIMTDEC
 70
2
  9
$DIMALTU
 70
2
  9
$DIMALTTD
 70
3
  9
$DIMTXSTY
  7
Standard
  9
$DIMAUNIT
 70
0
  9
$DIMADEC
 70
0
  9
$DIMALTRND
 40
0.0
  9
$DIMAZIN
 70
0
  9
$DIMDSEP
 70
44
  9
$DIMATFIT
 70
3
  9
$DIMFRAC
 70
0
  9
$DIMLDRBLK
  1

  9
$DIMLUNIT
 70
2
  9
$DIMLWD
 70
-2
  9
$DIMLWE
 70
-2
  9
$DIMTMOVE
 70
0
  9
$DIMFXL
 40
1.0
  9
$DIMFXLON
 70
0
  9
$DIMJOGANG
 40
0.785398163397
  9
$DIMTFILL
 70
0
  9
$DIMTFILLCLR
 70
0
  9
$DIMARCSYM
 70
0
  9
$DIMLTYPE
  6

  9
$DIMLTEX1
  6

  9
$DIMLTEX2
  6

  9
$DIMTXTDIRECTION
 70
0
  9
$LUNITS
 70
2
  9
$LUPREC
 70
4
  9
$SKETCHINC
 40
1.0
  9
$FILLETRAD
 40
10.0
  9
$AUNITS
 70
0
  9
$AUPREC
 70
2
  9
$MENU
  1
.
  9
$ELEVATION
 40
0.0
  9
$PELEVATION
 40
0.0
  9
$THICKNESS
 40
0.0
  9
$LIMCHECK
 70
0
  9
$CHAMFERA
 40
0.0
  9
$CHAMFERB
 40
0.0
  9
$CHAMFERC
 40
0.0
  9
$CHAMFERD
 40
0.0
  9
$SKPOLY
 70
0
  9
$TDCREATE
 40
2461141.491863426
  9
$TDUCREATE
 40
2458532.153996898
  9
$TDUPDATE
 40
2461141.491863426
  9
$TDUUPDATE
 40
2458532.1544311
  9
$TDINDWG
 40
0.0
  9
$TDUSRTIMER
 40
0.0
  9
$USRTIMER
 70
1
  9
$ANGBASE
 50
0.0
  9
$ANGDIR
 70
0
  9
$PDMODE
 70
0
  9
$PDSIZE
 40
0.0
  9
$PLINEWID
 40
0.0
  9
$SPLFRAME
 70
0
  9
$SPLINETYPE
 70
6
  9
$SPLINESEGS
 70
8
  9
$HANDSEED
  5
161
  9
$SURFTAB1
 70
6
  9
$SURFTAB2
 70
6
  9
$SURFTYPE
 70
6
  9
$SURFU
 70
6
  9
$SURFV
 70
6
  9
$UCSBASE
  2

  9
$UCSNAME
  2

  9
$UCSORG
 10
0.0
 20
0.0
 30
0.0
  9
$UCSXDIR
 10
1.0
 20
0.0
 30
0.0
  9
$UCSYDIR
 10
0.0
 20
1.0
 30
0.0
  9
$UCSORTHOREF
  2

  9
$UCSORTHOVIEW
 70
0
  9
$UCSORGTOP
 10
0.0
 20
0.0
 30
0.0
  9
$UCSORGBOTTOM
 10
0.0
 20
0.0
 30
0.0
  9
$UCSORGLEFT
 10
0.0
 20
0.0
 30
0.0
  9
$UCSORGRIGHT
 10
0.0
 20
0.0
 30
0.0
  9
$UCSORGFRONT
 10
0.0
 20
0.0
 30
0.0
  9
$UCSORGBACK
 10
0.0
 20
0.0
 30
0.0
  9
$PUCSBASE
  2

  9
$PUCSNAME
  2

  9
$PUCSORG
 10
0.0
 20
0.0
 30
0.0
  9
$PUCSXDIR
 10
1.0
 20
0.0
 30
0.0
  9
$PUCSYDIR
 10
0.0
 20
1.0
 30
0.0
  9
$PUCSORTHOREF
  2

  9
$PUCSORTHOVIEW
 70
0
  9
$PUCSORGTOP
 10
0.0
 20
0.0
 30
0.0
  9
$PUCSORGBOTTOM
 10
0.0
 20
0.0
 30
0.0
  9
$PUCSORGLEFT
 10
0.0
 20
0.0
 30
0.0
  9
$PUCSORGRIGHT
 10
0.0
 20
0.0
 30
0.0
  9
$PUCSORGFRONT
 10
0.0
 20
0.0
 30
0.0
  9
$PUCSORGBACK
 10
0.0
 20
0.0
 30
0.0
  9
$USERI1
 70
0
  9
$USERI2
 70
0
  9
$USERI3
 70
0
  9
$USERI4
 70
0
  9
$USERI5
 70
0
  9
$USERR1
 40
0.0
  9
$USERR2
 40
0.0
  9
$USERR3
 40
0.0
  9
$USERR4
 40
0.0
  9
$USERR5
 40
0.0
  9
$WORLDVIEW
 70
1
  9
$SHADEDGE
 70
3
  9
$SHADEDIF
 70
70
  9
$TILEMODE
 70
1
  9
$MAXACTVP
 70
64
  9
$PINSBASE
 10
0.0
 20
0.0
 30
0.0
  9
$PLIMCHECK
 70
0
  9
$PEXTMIN
 10
1e+20
 20
1e+20
 30
1e+20
  9
$PEXTMAX
 10
-1e+20
 20
-1e+20
 30
-1e+20
  9
$PLIMMIN
 10
0.0
 20
0.0
  9
$PLIMMAX
 10
420.0
 20
297.0
  9
$UNITMODE
 70
0
  9
$VISRETAIN
 70
1
  9
$PLINEGEN
 70
0
  9
$PSLTSCALE
 70
1
  9
$TREEDEPTH
 70
3020
  9
$CMLSTYLE
  2
Standard
  9
$CMLJUST
 70
0
  9
$CMLSCALE
 40
20.0
  9
$PROXYGRAPHICS
 70
1
  9
$MEASUREMENT
 70
1
  9
$CELWEIGHT
370
-1
  9
$ENDCAPS
280
0
  9
$JOINSTYLE
280
0
  9
$LWDISPLAY
290
0
  9
$INSUNITS
 70
6
  9
$HYPERLINKBASE
  1

  9
$STYLESHEET
  1

  9
$XEDIT
290
1
  9
$CEPSNTYPE
380
0
  9
$PSTYLEMODE
290
1
  9
$FINGERPRINTGUID
  2
{995BE2C7-311D-479B-A8DF-2FFA7858BFCF}
  9
$VERSIONGUID
  2
{5F4931DF-8034-46E6-96FA-219F00573D22}
  9
$EXTNAMES
290
1
  9
$PSVPSCALE
 40
0.0
  9
$OLESTARTUP
290
0
  9
$SORTENTS
280
127
  9
$INDEXCTL
280
0
  9
$HIDETEXT
280
1
  9
$XCLIPFRAME
280
1
  9
$HALOGAP
280
0
  9
$OBSCOLOR
 70
257
  9
$OBSLTYPE
280
0
  9
$INTERSECTIONDISPLAY
280
0
  9
$INTERSECTIONCOLOR
 70
257
  9
$DIMASSOC
280
2
  9
$PROJECTNAME
  1

  9
$CAMERADISPLAY
290
0
  9
$LENSLENGTH
 40
50.0
  9
$CAMERAHEIGHT
 40
0.0
  9
$STEPSPERSEC
 40
24.0
  9
$STEPSIZE
 40
100.0
  9
$3DDWFPREC
 40
2.0
  9
$PSOLWIDTH
 40
0.005
  9
$PSOLHEIGHT
 40
0.08
  9
$LOFTANG1
 40
1.570796326795
  9
$LOFTANG2
 40
1.570796326795
  9
$LOFTMAG1
 40
0.0
  9
$LOFTMAG2
 40
0.0
  9
$LOFTPARAM
 70
7
  9
$LOFTNORMALS
280
1
  9
$LATITUDE
 40
37.795
  9
$LONGITUDE
 40
-122.394
  9
$NORTHDIRECTION
 40
0.0
  9
$TIMEZONE
 70
-8000
  9
$LIGHTGLYPHDISPLAY
280
1
  9
$TILEMODELIGHTSYNCH
280
1
  9
$CMATERIAL
347
20
  9
$SOLIDHIST
280
0
  9
$SHOWHIST
280
1
  9
$DWFFRAME
280
2
  9
$DGNFRAME
280
2
  9
$REALWORLDSCALE
290
1
  9
$INTERFERECOLOR
 62
256
  9
$CSHADOW
280
0
  9
$SHADOWPLANELOCATION
 40
0.0
  0
ENDSEC
  0
SECTION
  2
CLASSES
  0
CLASS
  1
ACDBDICTIONARYWDFLT
  2
AcDbDictionaryWithDefault
  3
ObjectDBX Classes
 90
0
 91
0
280
0
281
0
  0
CLASS
  1
SUN
  2
AcDbSun
  3
SCENEOE
 90
1153
 91
0
280
0
281
0
  0
CLASS
  1
VISUALSTYLE
  2
AcDbVisualStyle
  3
ObjectDBX Classes
 90
4095
 91
0
280
0
281
0
  0
CLASS
  1
MATERIAL
  2
AcDbMaterial
  3
ObjectDBX Classes
 90
1153
 91
0
280
0
281
0
  0
CLASS
  1
SCALE
  2
AcDbScale
  3
ObjectDBX Classes
 90
1153
 91
0
280
0
281
0
  0
CLASS
  1
TABLESTYLE
  2
AcDbTableStyle
  3
ObjectDBX Classes
 90
4095
 91
0
280
0
281
0
  0
CLASS
  1
MLEADERSTYLE
  2
AcDbMLeaderStyle
  3
ACDB_MLEADERSTYLE_CLASS
 90
4095
 91
0
280
0
281
0
  0
CLASS
  1
DICTIONARYVAR
  2
AcDbDictionaryVar
  3
ObjectDBX Classes
 90
0
 91
0
280
0
281
0
  0
CLASS
  1
CELLSTYLEMAP
  2
AcDbCellStyleMap
  3
ObjectDBX Classes
 90
1152
 91
0
280
0
281
0
  0
CLASS
  1
MENTALRAYRENDERSETTINGS
  2
AcDbMentalRayRenderSettings
  3
SCENEOE
 90
1024
 91
0
280
0
281
0
  0
CLASS
  1
ACDBDETAILVIEWSTYLE
  2
AcDbDetailViewStyle
  3
ObjectDBX Classes
 90
1025
 91
0
280
0
281
0
  0
CLASS
  1
ACDBSECTIONVIEWSTYLE
  2
AcDbSectionViewStyle
  3
ObjectDBX Classes
 90
1025
 91
0
280
0
281
0
  0
CLASS
  1
RASTERVARIABLES
  2
AcDbRasterVariables
  3
ISM
 90
0
 91
0
280
0
281
0
  0
CLASS
  1
ACDBPLACEHOLDER
  2
AcDbPlaceHolder
  3
ObjectDBX Classes
 90
0
 91
0
280
0
281
0
  0
CLASS
  1
LAYOUT
  2
AcDbLayout
  3
ObjectDBX Classes
 90
0
 91
0
280
0
281
0
  0
ENDSEC
  0
SECTION
  2
TABLES
  0
TABLE
  2
VPORT
  5
8
330
0
100
AcDbSymbolTable
 70
1
  0
VPORT
  5
23
330
8
100
AcDbSymbolTableRecord
100
AcDbViewportTableRecord
  2
*Active
 70
0
 10
0.0
 20
0.0
 11
1.0
 21
1.0
 12
0.0
 22
0.0
 13
0.0
 23
0.0
 14
0.5
 24
0.5
 15
0.5
 25
0.5
 16
0.0
 26
0.0
 36
1.0
 17
0.0
 27
0.0
 37
0.0
 40
1000.0
 41
1.34
 42
50.0
 43
0.0
 44
0.0
 50
0.0
 51
0.0
 71
0
 72
1000
 73
1
 74
3
 75
0
 76
0
 77
0
 78
0
281
0
 65
0
146
0.0
  0
ENDTAB
  0
TABLE
  2
LTYPE
  5
2
330
0
100
AcDbSymbolTable
 70
3
  0
LTYPE
  5
24
330
2
100
AcDbSymbolTableRecord
100
AcDbLinetypeTableRecord
  2
ByBlock
 70
0
  3

 72
65
 73
0
 40
0.0
  0
LTYPE
  5
25
330
2
100
AcDbSymbolTableRecord
100
AcDbLinetypeTableRecord
  2
ByLayer
 70
0
  3

 72
65
 73
0
 40
0.0
  0
LTYPE
  5
26
330
2
100
AcDbSymbolTableRecord
100
AcDbLinetypeTableRecord
  2
Continuous
 70
0
  3

 72
65
 73
0
 40
0.0
  0
ENDTAB
  0
TABLE
  2
LAYER
  5
1
330
0
100
AcDbSymbolTable
 70
19
  0
LAYER
  5
27
330
1
100
AcDbSymbolTableRecord
100
AcDbLayerTableRecord
  2
0
 70
0
 62
7
  6
Continuous
370
-3
390
13
347
21
  0
LAYER
  5
28
330
1
100
AcDbSymbolTableRecord
100
AcDbLayerTableRecord
  2
Defpoints
 70
0
 62
7
  6
Continuous
290
0
370
-3
390
13
347
21
  0
LAYER
  5
2F
330
1
100
AcDbSymbolTableRecord
100
AcDbLayerTableRecord
  2
A-WALL
 70
0
 62
7
  6
Continuous
370
-3
390
13
347
21
  0
LAYER
  5
30
330
1
100
AcDbSymbolTableRecord
100
AcDbLayerTableRecord
  2
A-COLS
 70
0
 62
8
  6
Continuous
370
-3
390
13
347
21
  0
LAYER
  5
31
330
1
100
AcDbSymbolTableRecord
100
AcDbLayerTableRecord
  2
A-DOOR
 70
0
 62
3
  6
Continuous
370
-3
390
13
347
21
  0
LAYER
  5
32
330
1
100
AcDbSymbolTableRecord
100
AcDbLayerTableRecord
  2
E-CRANE-20T
 70
0
 62
6
  6
Continuous
370
-3
390
13
347
21
  0
LAYER
  5
33
330
1
100
AcDbSymbolTableRecord
100
AcDbLayerTableRecord
  2
E-CRANE-10T
 70
0
 62
6
  6
Continuous
370
-3
390
13
347
21
  0
LAYER
  5
34
330
1
100
AcDbSymbolTableRecord
100
AcDbLayerTableRecord
  2
M-EQUIP
 70
0
 62
4
  6
Continuous
370
-3
390
13
347
21
  0
LAYER
  5
35
330
1
100
AcDbSymbolTableRecord
100
AcDbLayerTableRecord
  2
M-EQUIP-SAFE
 70
0
 62
1
  6
Continuous
370
-3
390
13
347
21
  0
LAYER
  5
36
330
1
100
AcDbSymbolTableRecord
100
AcDbLayerTableRecord
  2
M-EQUIP-LABEL
 70
0
 62
7
  6
Continuous
370
-3
390
13
347
21
  0
LAYER
  5
37
330
1
100
AcDbSymbolTableRecord
100
AcDbLayerTableRecord
  2
P-FLOW-MAIN
 70
0
 62
3
  6
Continuous
370
-3
390
13
347
21
  0
LAYER
  5
38
330
1
100
AcDbSymbolTableRecord
100
AcDbLayerTableRecord
  2
P-FLOW-AGV
 70
0
 62
30
  6
Continuous
370
-3
390
13
347
21
  0
LAYER
  5
39
330
1
100
AcDbSymbolTableRecord
100
AcDbLayerTableRecord
  2
S-ZONE-FOD
 70
0
 62
30
  6
Continuous
370
-3
390
13
347
21
  0
LAYER
  5
3A
330
1
100
AcDbSymbolTableRecord
100
AcDbLayerTableRecord
  2
S-ZONE-CHEM
 70
0
 62
1
  6
Continuous
370
-3
390
13
347
21
  0
LAYER
  5
3B
330
1
100
AcDbSymbolTableRecord
100
AcDbLayerTableRecord
  2
S-ZONE-CLEAN
 70
0
 62
5
  6
Continuous
370
-3
390
13
347
21
  0
LAYER
  5
3C
330
1
100
AcDbSymbolTableRecord
100
AcDbLayerTableRecord
  2
S-ZONE-NDT
 70
0
 62
1
  6
Continuous
370
-3
390
13
347
21
  0
LAYER
  5
3D
330
1
100
AcDbSymbolTableRecord
100
AcDbLayerTableRecord
  2
S-ZONE-FIRE
 70
0
 62
1
  6
Continuous
370
-3
390
13
347
21
  0
LAYER
  5
3E
330
1
100
AcDbSymbolTableRecord
100
AcDbLayerTableRecord
  2
T-TEXT
 70
0
 62
7
  6
Continuous
370
-3
390
13
347
21
  0
LAYER
  5
3F
330
1
100
AcDbSymbolTableRecord
100
AcDbLayerTableRecord
  2
T-DIM
 70
0
 62
2
  6
Continuous
370
-3
390
13
347
21
  0
ENDTAB
  0
TABLE
  2
STYLE
  5
5
330
0
100
AcDbSymbolTable
 70
1
  0
STYLE
  5
29
330
5
100
AcDbSymbolTableRecord
100
AcDbTextStyleTableRecord
  2
Standard
 70
0
 40
0.0
 41
1.0
 50
0.0
 71
0
 42
2.5
  3
txt
  4

  0
ENDTAB
  0
TABLE
  2
VIEW
  5
7
330
0
100
AcDbSymbolTable
 70
0
  0
ENDTAB
  0
TABLE
  2
UCS
  5
6
330
0
100
AcDbSymbolTable
 70
0
  0
ENDTAB
  0
TABLE
  2
APPID
  5
3
330
0
100
AcDbSymbolTable
 70
3
  0
APPID
  5
2A
330
3
100
AcDbSymbolTableRecord
100
AcDbRegAppTableRecord
  2
ACAD
 70
0
  0
APPID
  5
15E
330
3
100
AcDbSymbolTableRecord
100
AcDbRegAppTableRecord
  2
HATCHBACKGROUNDCOLOR
 70
0
  0
APPID
  5
15F
330
3
100
AcDbSymbolTableRecord
100
AcDbRegAppTableRecord
  2
EZDXF
 70
0
  0
ENDTAB
  0
TABLE
  2
DIMSTYLE
  5
4
330
0
100
AcDbSymbolTable
 70
1
100
AcDbDimStyleTable
  0
DIMSTYLE
105
2B
330
4
100
AcDbSymbolTableRecord
100
AcDbDimStyleTableRecord
  2
Standard
 70
0
 40
1.0
 41
2.5
 42
0.625
 43
3.75
 44
1.25
 45
0.0
 46
0.0
 47
0.0
 48
0.0
 49
2.5
140
2.5
141
2.5
142
0.0
143
0.03937007874
144
1.0
145
0.0
146
1.0
147
0.625
148
0.0
 69
0
 70
0
 71
0
 72
0
 73
0
 74
0
 75
0
 76
0
 77
1
 78
8
 79
3
170
0
171
3
172
1
173
0
174
0
175
0
176
0
177
0
178
0
179
2
271
2
272
2
273
2
274
3
275
0
276
0
277
2
278
44
279
0
280
0
281
0
282
0
283
0
284
8
285
0
286
0
288
0
289
3
290
0
371
-2
372
-2
  0
ENDTAB
  0
TABLE
  2
BLOCK_RECORD
  5
9
330
0
100
AcDbSymbolTable
 70
2
  0
BLOCK_RECORD
  5
17
330
9
100
AcDbSymbolTableRecord
100
AcDbBlockTableRecord
  2
*Model_Space
340
1A
 70
0
280
1
281
0
  0
BLOCK_RECORD
  5
1B
330
9
100
AcDbSymbolTableRecord
100
AcDbBlockTableRecord
  2
*Paper_Space
340
1E
 70
0
280
1
281
0
  0
ENDTAB
  0
ENDSEC
  0
SECTION
  2
BLOCKS
  0
BLOCK
  5
18
330
17
100
AcDbEntity
  8
0
100
AcDbBlockBegin
  2
*Model_Space
 70
0
 10
0.0
 20
0.0
 30
0.0
  3
*Model_Space
  1

  0
ENDBLK
  5
19
330
17
100
AcDbEntity
  8
0
100
AcDbBlockEnd
  0
BLOCK
  5
1C
330
1B
100
AcDbEntity
  8
0
100
AcDbBlockBegin
  2
*Paper_Space
 70
0
 10
0.0
 20
0.0
 30
0.0
  3
*Paper_Space
  1

  0
ENDBLK
  5
1D
330
1B
100
AcDbEntity
  8
0
100
AcDbBlockEnd
  0
ENDSEC
  0
SECTION
  2
ENTITIES
  0
LWPOLYLINE
  5
40
330
17
100
AcDbEntity
  8
A-WALL
100
AcDbPolyline
 90
5
 70
0
 43
0.4
 10
0.0
 20
0.0
 10
150.0
 20
0.0
 10
150.0
 20
80.0
 10
0.0
 20
80.0
 10
0.0
 20
0.0
  0
LWPOLYLINE
  5
41
330
17
100
AcDbEntity
  8
A-COLS
100
AcDbPolyline
 90
5
 70
1
 10
9.65
 20
9.65
 10
10.35
 20
9.65
 10
10.35
 20
10.35
 10
9.65
 20
10.35
 10
9.65
 20
9.65
  0
LWPOLYLINE
  5
42
330
17
100
AcDbEntity
  8
A-COLS
100
AcDbPolyline
 90
5
 70
1
 10
9.65
 20
19.65
 10
10.35
 20
19.65
 10
10.35
 20
20.35
 10
9.65
 20
20.35
 10
9.65
 20
19.65
  0
LWPOLYLINE
  5
43
330
17
100
AcDbEntity
  8
A-COLS
100
AcDbPolyline
 90
5
 70
1
 10
9.65
 20
29.65
 10
10.35
 20
29.65
 10
10.35
 20
30.35
 10
9.65
 20
30.35
 10
9.65
 20
29.65
  0
LWPOLYLINE
  5
44
330
17
100
AcDbEntity
  8
A-COLS
100
AcDbPolyline
 90
5
 70
1
 10
9.65
 20
39.65
 10
10.35
 20
39.65
 10
10.35
 20
40.35
 10
9.65
 20
40.35
 10
9.65
 20
39.65
  0
LWPOLYLINE
  5
45
330
17
100
AcDbEntity
  8
A-COLS
100
AcDbPolyline
 90
5
 70
1
 10
9.65
 20
49.65
 10
10.35
 20
49.65
 10
10.35
 20
50.35
 10
9.65
 20
50.35
 10
9.65
 20
49.65
  0
LWPOLYLINE
  5
46
330
17
100
AcDbEntity
  8
A-COLS
100
AcDbPolyline
 90
5
 70
1
 10
9.65
 20
59.65
 10
10.35
 20
59.65
 10
10.35
 20
60.35
 10
9.65
 20
60.35
 10
9.65
 20
59.65
  0
LWPOLYLINE
  5
47
330
17
100
AcDbEntity
  8
A-COLS
100
AcDbPolyline
 90
5
 70
1
 10
9.65
 20
69.65
 10
10.35
 20
69.65
 10
10.35
 20
70.35
 10
9.65
 20
70.35
 10
9.65
 20
69.65
  0
LWPOLYLINE
  5
48
330
17
100
AcDbEntity
  8
A-COLS
100
AcDbPolyline
 90
5
 70
1
 10
19.65
 20
9.65
 10
20.35
 20
9.65
 10
20.35
 20
10.35
 10
19.65
 20
10.35
 10
19.65
 20
9.65
  0
LWPOLYLINE
  5
49
330
17
100
AcDbEntity
  8
A-COLS
100
AcDbPolyline
 90
5
 70
1
 10
19.65
 20
19.65
 10
20.35
 20
19.65
 10
20.35
 20
20.35
 10
19.65
 20
20.35
 10
19.65
 20
19.65
  0
LWPOLYLINE
  5
4A
330
17
100
AcDbEntity
  8
A-COLS
100
AcDbPolyline
 90
5
 70
1
 10
19.65
 20
29.65
 10
20.35
 20
29.65
 10
20.35
 20
30.35
 10
19.65
 20
30.35
 10
19.65
 20
29.65
  0
LWPOLYLINE
  5
4B
330
17
100
AcDbEntity
  8
A-COLS
100
AcDbPolyline
 90
5
 70
1
 10
19.65
 20
39.65
 10
20.35
 20
39.65
 10
20.35
 20
40.35
 10
19.65
 20
40.35
 10
19.65
 20
39.65
  0
LWPOLYLINE
  5
4C
330
17
100
AcDbEntity
  8
A-COLS
100
AcDbPolyline
 90
5
 70
1
 10
19.65
 20
49.65
 10
20.35
 20
49.65
 10
20.35
 20
50.35
 10
19.65
 20
50.35
 10
19.65
 20
49.65
  0
LWPOLYLINE
  5
4D
330
17
100
AcDbEntity
  8
A-COLS
100
AcDbPolyline
 90
5
 70
1
 10
19.65
 20
59.65
 10
20.35
 20
59.65
 10
20.35
 20
60.35
 10
19.65
 20
60.35
 10
19.65
 20
59.65
  0
LWPOLYLINE
  5
4E
330
17
100
AcDbEntity
  8
A-COLS
100
AcDbPolyline
 90
5
 70
1
 10
19.65
 20
69.65
 10
20.35
 20
69.65
 10
20.35
 20
70.35
 10
19.65
 20
70.35
 10
19.65
 20
69.65
  0
LWPOLYLINE
  5
4F
330
17
100
AcDbEntity
  8
A-COLS
100
AcDbPolyline
 90
5
 70
1
 10
29.65
 20
9.65
 10
30.35
 20
9.65
 10
30.35
 20
10.35
 10
29.65
 20
10.35
 10
29.65
 20
9.65
  0
LWPOLYLINE
  5
50
330
17
100
AcDbEntity
  8
A-COLS
100
AcDbPolyline
 90
5
 70
1
 10
29.65
 20
19.65
 10
30.35
 20
19.65
 10
30.35
 20
20.35
 10
29.65
 20
20.35
 10
29.65
 20
19.65
  0
LWPOLYLINE
  5
51
330
17
100
AcDbEntity
  8
A-COLS
100
AcDbPolyline
 90
5
 70
1
 10
29.65
 20
29.65
 10
30.35
 20
29.65
 10
30.35
 20
30.35
 10
29.65
 20
30.35
 10
29.65
 20
29.65
  0
LWPOLYLINE
  5
52
330
17
100
AcDbEntity
  8
A-COLS
100
AcDbPolyline
 90
5
 70
1
 10
29.65
 20
39.65
 10
30.35
 20
39.65
 10
30.35
 20
40.35
 10
29.65
 20
40.35
 10
29.65
 20
39.65
  0
LWPOLYLINE
  5
53
330
17
100
AcDbEntity
  8
A-COLS
100
AcDbPolyline
 90
5
 70
1
 10
29.65
 20
49.65
 10
30.35
 20
49.65
 10
30.35
 20
50.35
 10
29.65
 20
50.35
 10
29.65
 20
49.65
  0
LWPOLYLINE
  5
54
330
17
100
AcDbEntity
  8
A-COLS
100
AcDbPolyline
 90
5
 70
1
 10
29.65
 20
59.65
 10
30.35
 20
59.65
 10
30.35
 20
60.35
 10
29.65
 20
60.35
 10
29.65
 20
59.65
  0
LWPOLYLINE
  5
55
330
17
100
AcDbEntity
  8
A-COLS
100
AcDbPolyline
 90
5
 70
1
 10
29.65
 20
69.65
 10
30.35
 20
69.65
 10
30.35
 20
70.35
 10
29.65
 20
70.35
 10
29.65
 20
69.65
  0
LWPOLYLINE
  5
56
330
17
100
AcDbEntity
  8
A-COLS
100
AcDbPolyline
 90
5
 70
1
 10
39.65
 20
9.65
 10
40.35
 20
9.65
 10
40.35
 20
10.35
 10
39.65
 20
10.35
 10
39.65
 20
9.65
  0
LWPOLYLINE
  5
57
330
17
100
AcDbEntity
  8
A-COLS
100
AcDbPolyline
 90
5
 70
1
 10
39.65
 20
19.65
 10
40.35
 20
19.65
 10
40.35
 20
20.35
 10
39.65
 20
20.35
 10
39.65
 20
19.65
  0
LWPOLYLINE
  5
58
330
17
100
AcDbEntity
  8
A-COLS
100
AcDbPolyline
 90
5
 70
1
 10
39.65
 20
29.65
 10
40.35
 20
29.65
 10
40.35
 20
30.35
 10
39.65
 20
30.35
 10
39.65
 20
29.65
  0
LWPOLYLINE
  5
59
330
17
100
AcDbEntity
  8
A-COLS
100
AcDbPolyline
 90
5
 70
1
 10
39.65
 20
39.65
 10
40.35
 20
39.65
 10
40.35
 20
40.35
 10
39.65
 20
40.35
 10
39.65
 20
39.65
  0
LWPOLYLINE
  5
5A
330
17
100
AcDbEntity
  8
A-COLS
100
AcDbPolyline
 90
5
 70
1
 10
39.65
 20
49.65
 10
40.35
 20
49.65
 10
40.35
 20
50.35
 10
39.65
 20
50.35
 10
39.65
 20
49.65
  0
LWPOLYLINE
  5
5B
330
17
100
AcDbEntity
  8
A-COLS
100
AcDbPolyline
 90
5
 70
1
 10
39.65
 20
59.65
 10
40.35
 20
59.65
 10
40.35
 20
60.35
 10
39.65
 20
60.35
 10
39.65
 20
59.65
  0
LWPOLYLINE
  5
5C
330
17
100
AcDbEntity
  8
A-COLS
100
AcDbPolyline
 90
5
 70
1
 10
39.65
 20
69.65
 10
40.35
 20
69.65
 10
40.35
 20
70.35
 10
39.65
 20
70.35
 10
39.65
 20
69.65
  0
LWPOLYLINE
  5
5D
330
17
100
AcDbEntity
  8
A-COLS
100
AcDbPolyline
 90
5
 70
1
 10
49.65
 20
9.65
 10
50.35
 20
9.65
 10
50.35
 20
10.35
 10
49.65
 20
10.35
 10
49.65
 20
9.65
  0
LWPOLYLINE
  5
5E
330
17
100
AcDbEntity
  8
A-COLS
100
AcDbPolyline
 90
5
 70
1
 10
49.65
 20
19.65
 10
50.35
 20
19.65
 10
50.35
 20
20.35
 10
49.65
 20
20.35
 10
49.65
 20
19.65
  0
LWPOLYLINE
  5
5F
330
17
100
AcDbEntity
  8
A-COLS
100
AcDbPolyline
 90
5
 70
1
 10
49.65
 20
29.65
 10
50.35
 20
29.65
 10
50.35
 20
30.35
 10
49.65
 20
30.35
 10
49.65
 20
29.65
  0
LWPOLYLINE
  5
60
330
17
100
AcDbEntity
  8
A-COLS
100
AcDbPolyline
 90
5
 70
1
 10
49.65
 20
39.65
 10
50.35
 20
39.65
 10
50.35
 20
40.35
 10
49.65
 20
40.35
 10
49.65
 20
39.65
  0
LWPOLYLINE
  5
61
330
17
100
AcDbEntity
  8
A-COLS
100
AcDbPolyline
 90
5
 70
1
 10
49.65
 20
49.65
 10
50.35
 20
49.65
 10
50.35
 20
50.35
 10
49.65
 20
50.35
 10
49.65
 20
49.65
  0
LWPOLYLINE
  5
62
330
17
100
AcDbEntity
  8
A-COLS
100
AcDbPolyline
 90
5
 70
1
 10
49.65
 20
59.65
 10
50.35
 20
59.65
 10
50.35
 20
60.35
 10
49.65
 20
60.35
 10
49.65
 20
59.65
  0
LWPOLYLINE
  5
63
330
17
100
AcDbEntity
  8
A-COLS
100
AcDbPolyline
 90
5
 70
1
 10
49.65
 20
69.65
 10
50.35
 20
69.65
 10
50.35
 20
70.35
 10
49.65
 20
70.35
 10
49.65
 20
69.65
  0
LWPOLYLINE
  5
64
330
17
100
AcDbEntity
  8
A-COLS
100
AcDbPolyline
 90
5
 70
1
 10
59.65
 20
9.65
 10
60.35
 20
9.65
 10
60.35
 20
10.35
 10
59.65
 20
10.35
 10
59.65
 20
9.65
  0
LWPOLYLINE
  5
65
330
17
100
AcDbEntity
  8
A-COLS
100
AcDbPolyline
 90
5
 70
1
 10
59.65
 20
19.65
 10
60.35
 20
19.65
 10
60.35
 20
20.35
 10
59.65
 20
20.35
 10
59.65
 20
19.65
  0
LWPOLYLINE
  5
66
330
17
100
AcDbEntity
  8
A-COLS
100
AcDbPolyline
 90
5
 70
1
 10
59.65
 20
29.65
 10
60.35
 20
29.65
 10
60.35
 20
30.35
 10
59.65
 20
30.35
 10
59.65
 20
29.65
  0
LWPOLYLINE
  5
67
330
17
100
AcDbEntity
  8
A-COLS
100
AcDbPolyline
 90
5
 70
1
 10
59.65
 20
39.65
 10
60.35
 20
39.65
 10
60.35
 20
40.35
 10
59.65
 20
40.35
 10
59.65
 20
39.65
  0
LWPOLYLINE
  5
68
330
17
100
AcDbEntity
  8
A-COLS
100
AcDbPolyline
 90
5
 70
1
 10
59.65
 20
49.65
 10
60.35
 20
49.65
 10
60.35
 20
50.35
 10
59.65
 20
50.35
 10
59.65
 20
49.65
  0
LWPOLYLINE
  5
69
330
17
100
AcDbEntity
  8
A-COLS
100
AcDbPolyline
 90
5
 70
1
 10
59.65
 20
59.65
 10
60.35
 20
59.65
 10
60.35
 20
60.35
 10
59.65
 20
60.35
 10
59.65
 20
59.65
  0
LWPOLYLINE
  5
6A
330
17
100
AcDbEntity
  8
A-COLS
100
AcDbPolyline
 90
5
 70
1
 10
59.65
 20
69.65
 10
60.35
 20
69.65
 10
60.35
 20
70.35
 10
59.65
 20
70.35
 10
59.65
 20
69.65
  0
LWPOLYLINE
  5
6B
330
17
100
AcDbEntity
  8
A-COLS
100
AcDbPolyline
 90
5
 70
1
 10
69.65
 20
9.65
 10
70.35
 20
9.65
 10
70.35
 20
10.35
 10
69.65
 20
10.35
 10
69.65
 20
9.65
  0
LWPOLYLINE
  5
6C
330
17
100
AcDbEntity
  8
A-COLS
100
AcDbPolyline
 90
5
 70
1
 10
69.65
 20
19.65
 10
70.35
 20
19.65
 10
70.35
 20
20.35
 10
69.65
 20
20.35
 10
69.65
 20
19.65
  0
LWPOLYLINE
  5
6D
330
17
100
AcDbEntity
  8
A-COLS
100
AcDbPolyline
 90
5
 70
1
 10
69.65
 20
29.65
 10
70.35
 20
29.65
 10
70.35
 20
30.35
 10
69.65
 20
30.35
 10
69.65
 20
29.65
  0
LWPOLYLINE
  5
6E
330
17
100
AcDbEntity
  8
A-COLS
100
AcDbPolyline
 90
5
 70
1
 10
69.65
 20
39.65
 10
70.35
 20
39.65
 10
70.35
 20
40.35
 10
69.65
 20
40.35
 10
69.65
 20
39.65
  0
LWPOLYLINE
  5
6F
330
17
100
AcDbEntity
  8
A-COLS
100
AcDbPolyline
 90
5
 70
1
 10
69.65
 20
49.65
 10
70.35
 20
49.65
 10
70.35
 20
50.35
 10
69.65
 20
50.35
 10
69.65
 20
49.65
  0
LWPOLYLINE
  5
70
330
17
100
AcDbEntity
  8
A-COLS
100
AcDbPolyline
 90
5
 70
1
 10
69.65
 20
59.65
 10
70.35
 20
59.65
 10
70.35
 20
60.35
 10
69.65
 20
60.35
 10
69.65
 20
59.65
  0
LWPOLYLINE
  5
71
330
17
100
AcDbEntity
  8
A-COLS
100
AcDbPolyline
 90
5
 70
1
 10
69.65
 20
69.65
 10
70.35
 20
69.65
 10
70.35
 20
70.35
 10
69.65
 20
70.35
 10
69.65
 20
69.65
  0
LWPOLYLINE
  5
72
330
17
100
AcDbEntity
  8
A-COLS
100
AcDbPolyline
 90
5
 70
1
 10
79.65
 20
9.65
 10
80.35
 20
9.65
 10
80.35
 20
10.35
 10
79.65
 20
10.35
 10
79.65
 20
9.65
  0
LWPOLYLINE
  5
73
330
17
100
AcDbEntity
  8
A-COLS
100
AcDbPolyline
 90
5
 70
1
 10
79.65
 20
19.65
 10
80.35
 20
19.65
 10
80.35
 20
20.35
 10
79.65
 20
20.35
 10
79.65
 20
19.65
  0
LWPOLYLINE
  5
74
330
17
100
AcDbEntity
  8
A-COLS
100
AcDbPolyline
 90
5
 70
1
 10
79.65
 20
29.65
 10
80.35
 20
29.65
 10
80.35
 20
30.35
 10
79.65
 20
30.35
 10
79.65
 20
29.65
  0
LWPOLYLINE
  5
75
330
17
100
AcDbEntity
  8
A-COLS
100
AcDbPolyline
 90
5
 70
1
 10
79.65
 20
39.65
 10
80.35
 20
39.65
 10
80.35
 20
40.35
 10
79.65
 20
40.35
 10
79.65
 20
39.65
  0
LWPOLYLINE
  5
76
330
17
100
AcDbEntity
  8
A-COLS
100
AcDbPolyline
 90
5
 70
1
 10
79.65
 20
49.65
 10
80.35
 20
49.65
 10
80.35
 20
50.35
 10
79.65
 20
50.35
 10
79.65
 20
49.65
  0
LWPOLYLINE
  5
77
330
17
100
AcDbEntity
  8
A-COLS
100
AcDbPolyline
 90
5
 70
1
 10
79.65
 20
59.65
 10
80.35
 20
59.65
 10
80.35
 20
60.35
 10
79.65
 20
60.35
 10
79.65
 20
59.65
  0
LWPOLYLINE
  5
78
330
17
100
AcDbEntity
  8
A-COLS
100
AcDbPolyline
 90
5
 70
1
 10
79.65
 20
69.65
 10
80.35
 20
69.65
 10
80.35
 20
70.35
 10
79.65
 20
70.35
 10
79.65
 20
69.65
  0
LWPOLYLINE
  5
79
330
17
100
AcDbEntity
  8
A-COLS
100
AcDbPolyline
 90
5
 70
1
 10
89.65
 20
9.65
 10
90.35
 20
9.65
 10
90.35
 20
10.35
 10
89.65
 20
10.35
 10
89.65
 20
9.65
  0
LWPOLYLINE
  5
7A
330
17
100
AcDbEntity
  8
A-COLS
100
AcDbPolyline
 90
5
 70
1
 10
89.65
 20
19.65
 10
90.35
 20
19.65
 10
90.35
 20
20.35
 10
89.65
 20
20.35
 10
89.65
 20
19.65
  0
LWPOLYLINE
  5
7B
330
17
100
AcDbEntity
  8
A-COLS
100
AcDbPolyline
 90
5
 70
1
 10
89.65
 20
29.65
 10
90.35
 20
29.65
 10
90.35
 20
30.35
 10
89.65
 20
30.35
 10
89.65
 20
29.65
  0
LWPOLYLINE
  5
7C
330
17
100
AcDbEntity
  8
A-COLS
100
AcDbPolyline
 90
5
 70
1
 10
89.65
 20
39.65
 10
90.35
 20
39.65
 10
90.35
 20
40.35
 10
89.65
 20
40.35
 10
89.65
 20
39.65
  0
LWPOLYLINE
  5
7D
330
17
100
AcDbEntity
  8
A-COLS
100
AcDbPolyline
 90
5
 70
1
 10
89.65
 20
49.65
 10
90.35
 20
49.65
 10
90.35
 20
50.35
 10
89.65
 20
50.35
 10
89.65
 20
49.65
  0
LWPOLYLINE
  5
7E
330
17
100
AcDbEntity
  8
A-COLS
100
AcDbPolyline
 90
5
 70
1
 10
89.65
 20
59.65
 10
90.35
 20
59.65
 10
90.35
 20
60.35
 10
89.65
 20
60.35
 10
89.65
 20
59.65
  0
LWPOLYLINE
  5
7F
330
17
100
AcDbEntity
  8
A-COLS
100
AcDbPolyline
 90
5
 70
1
 10
89.65
 20
69.65
 10
90.35
 20
69.65
 10
90.35
 20
70.35
 10
89.65
 20
70.35
 10
89.65
 20
69.65
  0
LWPOLYLINE
  5
80
330
17
100
AcDbEntity
  8
A-COLS
100
AcDbPolyline
 90
5
 70
1
 10
99.65
 20
9.65
 10
100.35
 20
9.65
 10
100.35
 20
10.35
 10
99.65
 20
10.35
 10
99.65
 20
9.65
  0
LWPOLYLINE
  5
81
330
17
100
AcDbEntity
  8
A-COLS
100
AcDbPolyline
 90
5
 70
1
 10
99.65
 20
19.65
 10
100.35
 20
19.65
 10
100.35
 20
20.35
 10
99.65
 20
20.35
 10
99.65
 20
19.65
  0
LWPOLYLINE
  5
82
330
17
100
AcDbEntity
  8
A-COLS
100
AcDbPolyline
 90
5
 70
1
 10
99.65
 20
29.65
 10
100.35
 20
29.65
 10
100.35
 20
30.35
 10
99.65
 20
30.35
 10
99.65
 20
29.65
  0
LWPOLYLINE
  5
83
330
17
100
AcDbEntity
  8
A-COLS
100
AcDbPolyline
 90
5
 70
1
 10
99.65
 20
39.65
 10
100.35
 20
39.65
 10
100.35
 20
40.35
 10
99.65
 20
40.35
 10
99.65
 20
39.65
  0
LWPOLYLINE
  5
84
330
17
100
AcDbEntity
  8
A-COLS
100
AcDbPolyline
 90
5
 70
1
 10
99.65
 20
49.65
 10
100.35
 20
49.65
 10
100.35
 20
50.35
 10
99.65
 20
50.35
 10
99.65
 20
49.65
  0
LWPOLYLINE
  5
85
330
17
100
AcDbEntity
  8
A-COLS
100
AcDbPolyline
 90
5
 70
1
 10
99.65
 20
59.65
 10
100.35
 20
59.65
 10
100.35
 20
60.35
 10
99.65
 20
60.35
 10
99.65
 20
59.65
  0
LWPOLYLINE
  5
86
330
17
100
AcDbEntity
  8
A-COLS
100
AcDbPolyline
 90
5
 70
1
 10
99.65
 20
69.65
 10
100.35
 20
69.65
 10
100.35
 20
70.35
 10
99.65
 20
70.35
 10
99.65
 20
69.65
  0
LWPOLYLINE
  5
87
330
17
100
AcDbEntity
  8
A-COLS
100
AcDbPolyline
 90
5
 70
1
 10
109.65
 20
9.65
 10
110.35
 20
9.65
 10
110.35
 20
10.35
 10
109.65
 20
10.35
 10
109.65
 20
9.65
  0
LWPOLYLINE
  5
88
330
17
100
AcDbEntity
  8
A-COLS
100
AcDbPolyline
 90
5
 70
1
 10
109.65
 20
19.65
 10
110.35
 20
19.65
 10
110.35
 20
20.35
 10
109.65
 20
20.35
 10
109.65
 20
19.65
  0
LWPOLYLINE
  5
89
330
17
100
AcDbEntity
  8
A-COLS
100
AcDbPolyline
 90
5
 70
1
 10
109.65
 20
29.65
 10
110.35
 20
29.65
 10
110.35
 20
30.35
 10
109.65
 20
30.35
 10
109.65
 20
29.65
  0
LWPOLYLINE
  5
8A
330
17
100
AcDbEntity
  8
A-COLS
100
AcDbPolyline
 90
5
 70
1
 10
109.65
 20
39.65
 10
110.35
 20
39.65
 10
110.35
 20
40.35
 10
109.65
 20
40.35
 10
109.65
 20
39.65
  0
LWPOLYLINE
  5
8B
330
17
100
AcDbEntity
  8
A-COLS
100
AcDbPolyline
 90
5
 70
1
 10
109.65
 20
49.65
 10
110.35
 20
49.65
 10
110.35
 20
50.35
 10
109.65
 20
50.35
 10
109.65
 20
49.65
  0
LWPOLYLINE
  5
8C
330
17
100
AcDbEntity
  8
A-COLS
100
AcDbPolyline
 90
5
 70
1
 10
109.65
 20
59.65
 10
110.35
 20
59.65
 10
110.35
 20
60.35
 10
109.65
 20
60.35
 10
109.65
 20
59.65
  0
LWPOLYLINE
  5
8D
330
17
100
AcDbEntity
  8
A-COLS
100
AcDbPolyline
 90
5
 70
1
 10
109.65
 20
69.65
 10
110.35
 20
69.65
 10
110.35
 20
70.35
 10
109.65
 20
70.35
 10
109.65
 20
69.65
  0
LWPOLYLINE
  5
8E
330
17
100
AcDbEntity
  8
A-COLS
100
AcDbPolyline
 90
5
 70
1
 10
119.65
 20
9.65
 10
120.35
 20
9.65
 10
120.35
 20
10.35
 10
119.65
 20
10.35
 10
119.65
 20
9.65
  0
LWPOLYLINE
  5
8F
330
17
100
AcDbEntity
  8
A-COLS
100
AcDbPolyline
 90
5
 70
1
 10
119.65
 20
19.65
 10
120.35
 20
19.65
 10
120.35
 20
20.35
 10
119.65
 20
20.35
 10
119.65
 20
19.65
  0
LWPOLYLINE
  5
90
330
17
100
AcDbEntity
  8
A-COLS
100
AcDbPolyline
 90
5
 70
1
 10
119.65
 20
29.65
 10
120.35
 20
29.65
 10
120.35
 20
30.35
 10
119.65
 20
30.35
 10
119.65
 20
29.65
  0
LWPOLYLINE
  5
91
330
17
100
AcDbEntity
  8
A-COLS
100
AcDbPolyline
 90
5
 70
1
 10
119.65
 20
39.65
 10
120.35
 20
39.65
 10
120.35
 20
40.35
 10
119.65
 20
40.35
 10
119.65
 20
39.65
  0
LWPOLYLINE
  5
92
330
17
100
AcDbEntity
  8
A-COLS
100
AcDbPolyline
 90
5
 70
1
 10
119.65
 20
49.65
 10
120.35
 20
49.65
 10
120.35
 20
50.35
 10
119.65
 20
50.35
 10
119.65
 20
49.65
  0
LWPOLYLINE
  5
93
330
17
100
AcDbEntity
  8
A-COLS
100
AcDbPolyline
 90
5
 70
1
 10
119.65
 20
59.65
 10
120.35
 20
59.65
 10
120.35
 20
60.35
 10
119.65
 20
60.35
 10
119.65
 20
59.65
  0
LWPOLYLINE
  5
94
330
17
100
AcDbEntity
  8
A-COLS
100
AcDbPolyline
 90
5
 70
1
 10
119.65
 20
69.65
 10
120.35
 20
69.65
 10
120.35
 20
70.35
 10
119.65
 20
70.35
 10
119.65
 20
69.65
  0
LWPOLYLINE
  5
95
330
17
100
AcDbEntity
  8
A-COLS
100
AcDbPolyline
 90
5
 70
1
 10
129.65
 20
9.65
 10
130.35
 20
9.65
 10
130.35
 20
10.35
 10
129.65
 20
10.35
 10
129.65
 20
9.65
  0
LWPOLYLINE
  5
96
330
17
100
AcDbEntity
  8
A-COLS
100
AcDbPolyline
 90
5
 70
1
 10
129.65
 20
19.65
 10
130.35
 20
19.65
 10
130.35
 20
20.35
 10
129.65
 20
20.35
 10
129.65
 20
19.65
  0
LWPOLYLINE
  5
97
330
17
100
AcDbEntity
  8
A-COLS
100
AcDbPolyline
 90
5
 70
1
 10
129.65
 20
29.65
 10
130.35
 20
29.65
 10
130.35
 20
30.35
 10
129.65
 20
30.35
 10
129.65
 20
29.65
  0
LWPOLYLINE
  5
98
330
17
100
AcDbEntity
  8
A-COLS
100
AcDbPolyline
 90
5
 70
1
 10
129.65
 20
39.65
 10
130.35
 20
39.65
 10
130.35
 20
40.35
 10
129.65
 20
40.35
 10
129.65
 20
39.65
  0
LWPOLYLINE
  5
99
330
17
100
AcDbEntity
  8
A-COLS
100
AcDbPolyline
 90
5
 70
1
 10
129.65
 20
49.65
 10
130.35
 20
49.65
 10
130.35
 20
50.35
 10
129.65
 20
50.35
 10
129.65
 20
49.65
  0
LWPOLYLINE
  5
9A
330
17
100
AcDbEntity
  8
A-COLS
100
AcDbPolyline
 90
5
 70
1
 10
129.65
 20
59.65
 10
130.35
 20
59.65
 10
130.35
 20
60.35
 10
129.65
 20
60.35
 10
129.65
 20
59.65
  0
LWPOLYLINE
  5
9B
330
17
100
AcDbEntity
  8
A-COLS
100
AcDbPolyline
 90
5
 70
1
 10
129.65
 20
69.65
 10
130.35
 20
69.65
 10
130.35
 20
70.35
 10
129.65
 20
70.35
 10
129.65
 20
69.65
  0
LWPOLYLINE
  5
9C
330
17
100
AcDbEntity
  8
A-COLS
100
AcDbPolyline
 90
5
 70
1
 10
139.65
 20
9.65
 10
140.35
 20
9.65
 10
140.35
 20
10.35
 10
139.65
 20
10.35
 10
139.65
 20
9.65
  0
LWPOLYLINE
  5
9D
330
17
100
AcDbEntity
  8
A-COLS
100
AcDbPolyline
 90
5
 70
1
 10
139.65
 20
19.65
 10
140.35
 20
19.65
 10
140.35
 20
20.35
 10
139.65
 20
20.35
 10
139.65
 20
19.65
  0
LWPOLYLINE
  5
9E
330
17
100
AcDbEntity
  8
A-COLS
100
AcDbPolyline
 90
5
 70
1
 10
139.65
 20
29.65
 10
140.35
 20
29.65
 10
140.35
 20
30.35
 10
139.65
 20
30.35
 10
139.65
 20
29.65
  0
LWPOLYLINE
  5
9F
330
17
100
AcDbEntity
  8
A-COLS
100
AcDbPolyline
 90
5
 70
1
 10
139.65
 20
39.65
 10
140.35
 20
39.65
 10
140.35
 20
40.35
 10
139.65
 20
40.35
 10
139.65
 20
39.65
  0
LWPOLYLINE
  5
A0
330
17
100
AcDbEntity
  8
A-COLS
100
AcDbPolyline
 90
5
 70
1
 10
139.65
 20
49.65
 10
140.35
 20
49.65
 10
140.35
 20
50.35
 10
139.65
 20
50.35
 10
139.65
 20
49.65
  0
LWPOLYLINE
  5
A1
330
17
100
AcDbEntity
  8
A-COLS
100
AcDbPolyline
 90
5
 70
1
 10
139.65
 20
59.65
 10
140.35
 20
59.65
 10
140.35
 20
60.35
 10
139.65
 20
60.35
 10
139.65
 20
59.65
  0
LWPOLYLINE
  5
A2
330
17
100
AcDbEntity
  8
A-COLS
100
AcDbPolyline
 90
5
 70
1
 10
139.65
 20
69.65
 10
140.35
 20
69.65
 10
140.35
 20
70.35
 10
139.65
 20
70.35
 10
139.65
 20
69.65
  0
LINE
  5
A3
330
17
100
AcDbEntity
  8
A-DOOR
100
AcDbLine
 10
0.0
 20
30.0
 30
0.0
 11
0.0
 21
42.0
 31
0.0
  0
TEXT
  5
A4
330
17
100
AcDbEntity
  8
T-TEXT
100
AcDbText
 10
0.0
 20
37.5
 30
0.0
 40
0.8
  1
大件进口-1
 72
1
 11
0.0
 21
37.5
 31
0.0
100
AcDbText
 73
2
  0
LINE
  5
A5
330
17
100
AcDbEntity
  8
A-DOOR
100
AcDbLine
 10
150.0
 20
30.0
 30
0.0
 11
150.0
 21
42.0
 31
0.0
  0
TEXT
  5
A6
330
17
100
AcDbEntity
  8
T-TEXT
100
AcDbText
 10
150.0
 20
37.5
 30
0.0
 40
0.8
  1
大件进口-2
 72
1
 11
150.0
 21
37.5
 31
0.0
100
AcDbText
 73
2
  0
LINE
  5
A7
330
17
100
AcDbEntity
  8
A-DOOR
100
AcDbLine
 10
60.0
 20
0.0
 30
0.0
 11
68.0
 21
0.0
 31
0.0
  0
TEXT
  5
A8
330
17
100
AcDbEntity
  8
T-TEXT
100
AcDbText
 10
64.0
 20
1.5
 30
0.0
 40
0.8
  1
人员入口
 72
1
 11
64.0
 21
1.5
 31
0.0
100
AcDbText
 73
2
  0
LINE
  5
A9
330
17
100
AcDbEntity
  8
A-DOOR
100
AcDbLine
 10
100.0
 20
0.0
 30
0.0
 11
106.0
 21
0.0
 31
0.0
  0
TEXT
  5
AA
330
17
100
AcDbEntity
  8
T-TEXT
100
AcDbText
 10
103.0
 20
1.5
 30
0.0
 40
0.8
  1
消防出口
 72
1
 11
103.0
 21
1.5
 31
0.0
100
AcDbText
 73
2
  0
LINE
  5
AB
330
17
100
AcDbEntity
  8
E-CRANE-20T
100
AcDbLine
 10
3.0
 20
68.0
 30
0.0
 11
147.0
 21
68.0
 31
0.0
  0
LINE
  5
AC
330
17
100
AcDbEntity
  8
E-CRANE-20T
100
AcDbLine
 10
3.0
 20
68.8
 30
0.0
 11
147.0
 21
68.8
 31
0.0
  0
TEXT
  5
AD
330
17
100
AcDbEntity
  8
E-CRANE-20T
100
AcDbText
 10
75.0
 20
70.0
 30
0.0
 40
0.6
  1
20T天车-A
 72
1
 11
75.0
 21
70.0
 31
0.0
100
AcDbText
 73
2
  0
LINE
  5
AE
330
17
100
AcDbEntity
  8
E-CRANE-10T
100
AcDbLine
 10
3.0
 20
38.0
 30
0.0
 11
147.0
 21
38.0
 31
0.0
  0
LINE
  5
AF
330
17
100
AcDbEntity
  8
E-CRANE-10T
100
AcDbLine
 10
3.0
 20
38.8
 30
0.0
 11
147.0
 21
38.8
 31
0.0
  0
TEXT
  5
B0
330
17
100
AcDbEntity
  8
E-CRANE-10T
100
AcDbText
 10
75.0
 20
40.0
 30
0.0
 40
0.6
  1
10T天车-B
 72
1
 11
75.0
 21
40.0
 31
0.0
100
AcDbText
 73
2
  0
LINE
  5
B1
330
17
100
AcDbEntity
  8
E-CRANE-20T
100
AcDbLine
 10
3.0
 20
20.0
 30
0.0
 11
147.0
 21
20.0
 31
0.0
  0
LINE
  5
B2
330
17
100
AcDbEntity
  8
E-CRANE-20T
100
AcDbLine
 10
3.0
 20
20.8
 30
0.0
 11
147.0
 21
20.8
 31
0.0
  0
TEXT
  5
B3
330
17
100
AcDbEntity
  8
E-CRANE-20T
100
AcDbText
 10
75.0
 20
22.0
 30
0.0
 40
0.6
  1
20T天车-C
 72
1
 11
75.0
 21
22.0
 31
0.0
100
AcDbText
 73
2
  0
LINE
  5
B4
330
17
100
AcDbEntity
  8
E-CRANE-10T
100
AcDbLine
 10
3.0
 20
55.0
 30
0.0
 11
147.0
 21
55.0
 31
0.0
  0
LINE
  5
B5
330
17
100
AcDbEntity
  8
E-CRANE-10T
100
AcDbLine
 10
3.0
 20
55.8
 30
0.0
 11
147.0
 21
55.8
 31
0.0
  0
TEXT
  5
B6
330
17
100
AcDbEntity
  8
E-CRANE-10T
100
AcDbText
 10
75.0
 20
57.0
 30
0.0
 40
0.6
  1
10T天车-D
 72
1
 11
75.0
 21
57.0
 31
0.0
100
AcDbText
 73
2
  0
LWPOLYLINE
  5
B7
330
17
100
AcDbEntity
  8
M-EQUIP
100
AcDbPolyline
 90
5
 70
1
 10
10.0
 20
62.0
 10
18.0
 20
62.0
 10
18.0
 20
66.0
 10
10.0
 20
66.0
 10
10.0
 20
62.0
  0
LWPOLYLINE
  5
B8
330
17
100
AcDbEntity
  8
M-EQUIP-SAFE
100
AcDbPolyline
 90
5
 70
1
 10
8.8
 20
60.8
 10
19.2
 20
60.8
 10
19.2
 20
67.2
 10
8.8
 20
67.2
 10
8.8
 20
60.8
  0
TEXT
  5
B9
330
17
100
AcDbEntity
  8
M-EQUIP-LABEL
100
AcDbText
 10
14.0
 20
64.0
 30
0.0
 40
0.45
  1
EQ-201: 自动钻铆机-01
 72
1
 11
14.0
 21
64.0
 31
0.0
100
AcDbText
 73
2
  0
LWPOLYLINE
  5
BA
330
17
100
AcDbEntity
  8
M-EQUIP
100
AcDbPolyline
 90
5
 70
1
 10
22.0
 20
62.0
 10
30.0
 20
62.0
 10
30.0
 20
66.0
 10
22.0
 20
66.0
 10
22.0
 20
62.0
  0
LWPOLYLINE
  5
BB
330
17
100
AcDbEntity
  8
M-EQUIP-SAFE
100
AcDbPolyline
 90
5
 70
1
 10
20.8
 20
60.8
 10
31.2
 20
60.8
 10
31.2
 20
67.2
 10
20.8
 20
67.2
 10
20.8
 20
60.8
  0
TEXT
  5
BC
330
17
100
AcDbEntity
  8
M-EQUIP-LABEL
100
AcDbText
 10
26.0
 20
64.0
 30
0.0
 40
0.45
  1
EQ-202: 自动钻铆机-02
 72
1
 11
26.0
 21
64.0
 31
0.0
100
AcDbText
 73
2
  0
LWPOLYLINE
  5
BD
330
17
100
AcDbEntity
  8
M-EQUIP
100
AcDbPolyline
 90
5
 70
1
 10
34.0
 20
62.0
 10
40.0
 20
62.0
 10
40.0
 20
66.0
 10
34.0
 20
66.0
 10
34.0
 20
62.0
  0
LWPOLYLINE
  5
BE
330
17
100
AcDbEntity
  8
M-EQUIP-SAFE
100
AcDbPolyline
 90
5
 70
1
 10
32.8
 20
60.8
 10
41.2
 20
60.8
 10
41.2
 20
67.2
 10
32.8
 20
67.2
 10
32.8
 20
60.8
  0
TEXT
  5
BF
330
17
100
AcDbEntity
  8
M-EQUIP-LABEL
100
AcDbText
 10
37.0
 20
64.0
 30
0.0
 40
0.45
  1
EQ-203: 框段铆接机-03
 72
1
 11
37.0
 21
64.0
 31
0.0
100
AcDbText
 73
2
  0
LWPOLYLINE
  5
C0
330
17
100
AcDbEntity
  8
M-EQUIP
100
AcDbPolyline
 90
5
 70
1
 10
44.0
 20
62.0
 10
50.0
 20
62.0
 10
50.0
 20
65.0
 10
44.0
 20
65.0
 10
44.0
 20
62.0
  0
LWPOLYLINE
  5
C1
330
17
100
AcDbEntity
  8
M-EQUIP-SAFE
100
AcDbPolyline
 90
5
 70
1
 10
42.8
 20
60.8
 10
51.2
 20
60.8
 10
51.2
 20
66.2
 10
42.8
 20
66.2
 10
42.8
 20
60.8
  0
TEXT
  5
C2
330
17
100
AcDbEntity
  8
M-EQUIP-LABEL
100
AcDbText
 10
47.0
 20
63.5
 30
0.0
 40
0.45
  1
EQ-204: 手动铆接台-04
 72
1
 11
47.0
 21
63.5
 31
0.0
100
AcDbText
 73
2
  0
LWPOLYLINE
  5
C3
330
17
100
AcDbEntity
  8
M-EQUIP
100
AcDbPolyline
 90
5
 70
1
 10
54.0
 20
62.0
 10
60.0
 20
62.0
 10
60.0
 20
65.0
 10
54.0
 20
65.0
 10
54.0
 20
62.0
  0
LWPOLYLINE
  5
C4
330
17
100
AcDbEntity
  8
M-EQUIP-SAFE
100
AcDbPolyline
 90
5
 70
1
 10
52.8
 20
60.8
 10
61.2
 20
60.8
 10
61.2
 20
66.2
 10
52.8
 20
66.2
 10
52.8
 20
60.8
  0
TEXT
  5
C5
330
17
100
AcDbEntity
  8
M-EQUIP-LABEL
100
AcDbText
 10
57.0
 20
63.5
 30
0.0
 40
0.45
  1
EQ-205: 手动铆接台-05
 72
1
 11
57.0
 21
63.5
 31
0.0
100
AcDbText
 73
2
  0
LWPOLYLINE
  5
C6
330
17
100
AcDbEntity
  8
M-EQUIP
100
AcDbPolyline
 90
5
 70
1
 10
64.0
 20
62.0
 10
69.0
 20
62.0
 10
69.0
 20
65.0
 10
64.0
 20
65.0
 10
64.0
 20
62.0
  0
LWPOLYLINE
  5
C7
330
17
100
AcDbEntity
  8
M-EQUIP-SAFE
100
AcDbPolyline
 90
5
 70
1
 10
62.8
 20
60.8
 10
70.2
 20
60.8
 10
70.2
 20
66.2
 10
62.8
 20
66.2
 10
62.8
 20
60.8
  0
TEXT
  5
C8
330
17
100
AcDbEntity
  8
M-EQUIP-LABEL
100
AcDbText
 10
66.5
 20
63.5
 30
0.0
 40
0.45
  1
EQ-206: 锪窝机-06
 72
1
 11
66.5
 21
63.5
 31
0.0
100
AcDbText
 73
2
  0
LWPOLYLINE
  5
C9
330
17
100
AcDbEntity
  8
M-EQUIP
100
AcDbPolyline
 90
5
 70
1
 10
30.0
 20
42.0
 10
50.0
 20
42.0
 10
50.0
 20
48.0
 10
30.0
 20
48.0
 10
30.0
 20
42.0
  0
LWPOLYLINE
  5
CA
330
17
100
AcDbEntity
  8
M-EQUIP-SAFE
100
AcDbPolyline
 90
5
 70
1
 10
28.8
 20
40.8
 10
51.2
 20
40.8
 10
51.2
 20
49.2
 10
28.8
 20
49.2
 10
28.8
 20
40.8
  0
TEXT
  5
CB
330
17
100
AcDbEntity
  8
M-EQUIP-LABEL
100
AcDbText
 10
40.0
 20
45.0
 30
0.0
 40
0.45
  1
EQ-210: 对接型架(20m×6m)
 72
1
 11
40.0
 21
45.0
 31
0.0
100
AcDbText
 73
2
  0
LWPOLYLINE
  5
CC
330
17
100
AcDbEntity
  8
M-EQUIP
100
AcDbPolyline
 90
5
 70
1
 10
25.0
 20
50.0
 10
27.0
 20
50.0
 10
27.0
 20
51.5
 10
25.0
 20
51.5
 10
25.0
 20
50.0
  0
LWPOLYLINE
  5
CD
330
17
100
AcDbEntity
  8
M-EQUIP-SAFE
100
AcDbPolyline
 90
5
 70
1
 10
23.8
 20
48.8
 10
28.2
 20
48.8
 10
28.2
 20
52.7
 10
23.8
 20
52.7
 10
23.8
 20
48.8
  0
TEXT
  5
CE
330
17
100
AcDbEntity
  8
M-EQUIP-LABEL
100
AcDbText
 10
26.0
 20
50.75
 30
0.0
 40
0.45
  1
EQ-211: 激光跟踪仪-L
 72
1
 11
26.0
 21
50.75
 31
0.0
100
AcDbText
 73
2
  0
LWPOLYLINE
  5
CF
330
17
100
AcDbEntity
  8
M-EQUIP
100
AcDbPolyline
 90
5
 70
1
 10
52.0
 20
50.0
 10
54.0
 20
50.0
 10
54.0
 20
51.5
 10
52.0
 20
51.5
 10
52.0
 20
50.0
  0
LWPOLYLINE
  5
D0
330
17
100
AcDbEntity
  8
M-EQUIP-SAFE
100
AcDbPolyline
 90
5
 70
1
 10
50.8
 20
48.8
 10
55.2
 20
48.8
 10
55.2
 20
52.7
 10
50.8
 20
52.7
 10
50.8
 20
48.8
  0
TEXT
  5
D1
330
17
100
AcDbEntity
  8
M-EQUIP-LABEL
100
AcDbText
 10
53.0
 20
50.75
 30
0.0
 40
0.45
  1
EQ-212: 激光跟踪仪-R
 72
1
 11
53.0
 21
50.75
 31
0.0
100
AcDbText
 73
2
  0
LWPOLYLINE
  5
D2
330
17
100
AcDbEntity
  8
M-EQUIP
100
AcDbPolyline
 90
5
 70
1
 10
35.0
 20
50.0
 10
38.0
 20
50.0
 10
38.0
 20
51.5
 10
35.0
 20
51.5
 10
35.0
 20
50.0
  0
LWPOLYLINE
  5
D3
330
17
100
AcDbEntity
  8
M-EQUIP-SAFE
100
AcDbPolyline
 90
5
 70
1
 10
33.8
 20
48.8
 10
39.2
 20
48.8
 10
39.2
 20
52.7
 10
33.8
 20
52.7
 10
33.8
 20
48.8
  0
TEXT
  5
D4
330
17
100
AcDbEntity
  8
M-EQUIP-LABEL
100
AcDbText
 10
36.5
 20
50.75
 30
0.0
 40
0.45
  1
EQ-213: 数字测量系统
 72
1
 11
36.5
 21
50.75
 31
0.0
100
AcDbText
 73
2
  0
LWPOLYLINE
  5
D5
330
17
100
AcDbEntity
  8
M-EQUIP
100
AcDbPolyline
 90
5
 70
1
 10
55.0
 20
42.0
 10
60.0
 20
42.0
 10
60.0
 20
46.0
 10
55.0
 20
46.0
 10
55.0
 20
42.0
  0
LWPOLYLINE
  5
D6
330
17
100
AcDbEntity
  8
M-EQUIP-SAFE
100
AcDbPolyline
 90
5
 70
1
 10
53.8
 20
40.8
 10
61.2
 20
40.8
 10
61.2
 20
47.2
 10
53.8
 20
47.2
 10
53.8
 20
40.8
  0
TEXT
  5
D7
330
17
100
AcDbEntity
  8
M-EQUIP-LABEL
100
AcDbText
 10
57.5
 20
44.0
 30
0.0
 40
0.45
  1
EQ-214: 定位卡板台
 72
1
 11
57.5
 21
44.0
 31
0.0
100
AcDbText
 73
2
  0
LWPOLYLINE
  5
D8
330
17
100
AcDbEntity
  8
M-EQUIP
100
AcDbPolyline
 90
5
 70
1
 10
10.0
 20
26.0
 10
15.0
 20
26.0
 10
15.0
 20
30.0
 10
10.0
 20
30.0
 10
10.0
 20
26.0
  0
LWPOLYLINE
  5
D9
330
17
100
AcDbEntity
  8
M-EQUIP-SAFE
100
AcDbPolyline
 90
5
 70
1
 10
8.8
 20
24.8
 10
16.2
 20
24.8
 10
16.2
 20
31.2
 10
8.8
 20
31.2
 10
8.8
 20
24.8
  0
TEXT
  5
DA
330
17
100
AcDbEntity
  8
M-EQUIP-LABEL
100
AcDbText
 10
12.5
 20
28.0
 30
0.0
 40
0.45
  1
EQ-220: 密封胶涂敷工位
 72
1
 11
12.5
 21
28.0
 31
0.0
100
AcDbText
 73
2
  0
LWPOLYLINE
  5
DB
330
17
100
AcDbEntity
  8
M-EQUIP
100
AcDbPolyline
 90
5
 70
1
 10
20.0
 20
26.0
 10
24.0
 20
26.0
 10
24.0
 20
29.0
 10
20.0
 20
29.0
 10
20.0
 20
26.0
  0
LWPOLYLINE
  5
DC
330
17
100
AcDbEntity
  8
M-EQUIP-SAFE
100
AcDbPolyline
 90
5
 70
1
 10
18.8
 20
24.8
 10
25.2
 20
24.8
 10
25.2
 20
30.2
 10
18.8
 20
30.2
 10
18.8
 20
24.8
  0
TEXT
  5
DD
330
17
100
AcDbEntity
  8
M-EQUIP-LABEL
100
AcDbText
 10
22.0
 20
27.5
 30
0.0
 40
0.45
  1
EQ-221: 清洗间
 72
1
 11
22.0
 21
27.5
 31
0.0
100
AcDbText
 73
2
  0
LWPOLYLINE
  5
DE
330
17
100
AcDbEntity
  8
M-EQUIP
100
AcDbPolyline
 90
5
 70
1
 10
30.0
 20
26.0
 10
36.0
 20
26.0
 10
36.0
 20
30.0
 10
30.0
 20
30.0
 10
30.0
 20
26.0
  0
LWPOLYLINE
  5
DF
330
17
100
AcDbEntity
  8
M-EQUIP-SAFE
100
AcDbPolyline
 90
5
 70
1
 10
28.8
 20
24.8
 10
37.2
 20
24.8
 10
37.2
 20
31.2
 10
28.8
 20
31.2
 10
28.8
 20
24.8
  0
TEXT
  5
E0
330
17
100
AcDbEntity
  8
M-EQUIP-LABEL
100
AcDbText
 10
33.0
 20
28.0
 30
0.0
 40
0.45
  1
EQ-222: NDT-X射线
 72
1
 11
33.0
 21
28.0
 31
0.0
100
AcDbText
 73
2
  0
LWPOLYLINE
  5
E1
330
17
100
AcDbEntity
  8
M-EQUIP
100
AcDbPolyline
 90
5
 70
1
 10
45.0
 20
26.0
 10
53.0
 20
26.0
 10
53.0
 20
32.0
 10
45.0
 20
32.0
 10
45.0
 20
26.0
  0
LWPOLYLINE
  5
E2
330
17
100
AcDbEntity
  8
M-EQUIP-SAFE
100
AcDbPolyline
 90
5
 70
1
 10
43.8
 20
24.8
 10
54.2
 20
24.8
 10
54.2
 20
33.2
 10
43.8
 20
33.2
 10
43.8
 20
24.8
  0
TEXT
  5
E3
330
17
100
AcDbEntity
  8
M-EQUIP-LABEL
100
AcDbText
 10
49.0
 20
29.0
 30
0.0
 40
0.45
  1
EQ-223: 恒温检测间
 72
1
 11
49.0
 21
29.0
 31
0.0
100
AcDbText
 73
2
  0
LWPOLYLINE
  5
E4
330
17
100
AcDbEntity
  8
M-EQUIP
100
AcDbPolyline
 90
5
 70
1
 10
58.0
 20
26.0
 10
62.0
 20
26.0
 10
62.0
 20
29.0
 10
58.0
 20
29.0
 10
58.0
 20
26.0
  0
LWPOLYLINE
  5
E5
330
17
100
AcDbEntity
  8
M-EQUIP-SAFE
100
AcDbPolyline
 90
5
 70
1
 10
56.8
 20
24.8
 10
63.2
 20
24.8
 10
63.2
 20
30.2
 10
56.8
 20
30.2
 10
56.8
 20
24.8
  0
TEXT
  5
E6
330
17
100
AcDbEntity
  8
M-EQUIP-LABEL
100
AcDbText
 10
60.0
 20
27.5
 30
0.0
 40
0.45
  1
EQ-224: 超声NDT
 72
1
 11
60.0
 21
27.5
 31
0.0
100
AcDbText
 73
2
  0
LWPOLYLINE
  5
E7
330
17
100
AcDbEntity
  8
M-EQUIP
100
AcDbPolyline
 90
5
 70
1
 10
65.0
 20
26.0
 10
70.0
 20
26.0
 10
70.0
 20
29.0
 10
65.0
 20
29.0
 10
65.0
 20
26.0
  0
LWPOLYLINE
  5
E8
330
17
100
AcDbEntity
  8
M-EQUIP-SAFE
100
AcDbPolyline
 90
5
 70
1
 10
63.8
 20
24.8
 10
71.2
 20
24.8
 10
71.2
 20
30.2
 10
63.8
 20
30.2
 10
63.8
 20
24.8
  0
TEXT
  5
E9
330
17
100
AcDbEntity
  8
M-EQUIP-LABEL
100
AcDbText
 10
67.5
 20
27.5
 30
0.0
 40
0.45
  1
EQ-225: 渗透检测台
 72
1
 11
67.5
 21
27.5
 31
0.0
100
AcDbText
 73
2
  0
LWPOLYLINE
  5
EA
330
17
100
AcDbEntity
  8
M-EQUIP
100
AcDbPolyline
 90
5
 70
1
 10
10.0
 20
10.0
 10
18.0
 20
10.0
 10
18.0
 20
15.0
 10
10.0
 20
15.0
 10
10.0
 20
10.0
  0
LWPOLYLINE
  5
EB
330
17
100
AcDbEntity
  8
M-EQUIP-SAFE
100
AcDbPolyline
 90
5
 70
1
 10
8.8
 20
8.8
 10
19.2
 20
8.8
 10
19.2
 20
16.2
 10
8.8
 20
16.2
 10
8.8
 20
8.8
  0
TEXT
  5
EC
330
17
100
AcDbEntity
  8
M-EQUIP-LABEL
100
AcDbText
 10
14.0
 20
12.5
 30
0.0
 40
0.45
  1
EQ-230: 管路预装-A
 72
1
 11
14.0
 21
12.5
 31
0.0
100
AcDbText
 73
2
  0
LWPOLYLINE
  5
ED
330
17
100
AcDbEntity
  8
M-EQUIP
100
AcDbPolyline
 90
5
 70
1
 10
25.0
 20
10.0
 10
33.0
 20
10.0
 10
33.0
 20
15.0
 10
25.0
 20
15.0
 10
25.0
 20
10.0
  0
LWPOLYLINE
  5
EE
330
17
100
AcDbEntity
  8
M-EQUIP-SAFE
100
AcDbPolyline
 90
5
 70
1
 10
23.8
 20
8.8
 10
34.2
 20
8.8
 10
34.2
 20
16.2
 10
23.8
 20
16.2
 10
23.8
 20
8.8
  0
TEXT
  5
EF
330
17
100
AcDbEntity
  8
M-EQUIP-LABEL
100
AcDbText
 10
29.0
 20
12.5
 30
0.0
 40
0.45
  1
EQ-231: 电缆布线-B
 72
1
 11
29.0
 21
12.5
 31
0.0
100
AcDbText
 73
2
  0
LWPOLYLINE
  5
F0
330
17
100
AcDbEntity
  8
M-EQUIP
100
AcDbPolyline
 90
5
 70
1
 10
40.0
 20
10.0
 10
48.0
 20
10.0
 10
48.0
 20
15.0
 10
40.0
 20
15.0
 10
40.0
 20
10.0
  0
LWPOLYLINE
  5
F1
330
17
100
AcDbEntity
  8
M-EQUIP-SAFE
100
AcDbPolyline
 90
5
 70
1
 10
38.8
 20
8.8
 10
49.2
 20
8.8
 10
49.2
 20
16.2
 10
38.8
 20
16.2
 10
38.8
 20
8.8
  0
TEXT
  5
F2
330
17
100
AcDbEntity
  8
M-EQUIP-LABEL
100
AcDbText
 10
44.0
 20
12.5
 30
0.0
 40
0.45
  1
EQ-232: 系统集成-C
 72
1
 11
44.0
 21
12.5
 31
0.0
100
AcDbText
 73
2
  0
LWPOLYLINE
  5
F3
330
17
100
AcDbEntity
  8
M-EQUIP
100
AcDbPolyline
 90
5
 70
1
 10
55.0
 20
10.0
 10
63.0
 20
10.0
 10
63.0
 20
15.0
 10
55.0
 20
15.0
 10
55.0
 20
10.0
  0
LWPOLYLINE
  5
F4
330
17
100
AcDbEntity
  8
M-EQUIP-SAFE
100
AcDbPolyline
 90
5
 70
1
 10
53.8
 20
8.8
 10
64.2
 20
8.8
 10
64.2
 20
16.2
 10
53.8
 20
16.2
 10
53.8
 20
8.8
  0
TEXT
  5
F5
330
17
100
AcDbEntity
  8
M-EQUIP-LABEL
100
AcDbText
 10
59.0
 20
12.5
 30
0.0
 40
0.45
  1
EQ-233: 功能测试-D
 72
1
 11
59.0
 21
12.5
 31
0.0
100
AcDbText
 73
2
  0
LWPOLYLINE
  5
F6
330
17
100
AcDbEntity
  8
M-EQUIP
100
AcDbPolyline
 90
5
 70
1
 10
68.0
 20
10.0
 10
74.0
 20
10.0
 10
74.0
 20
14.0
 10
68.0
 20
14.0
 10
68.0
 20
10.0
  0
LWPOLYLINE
  5
F7
330
17
100
AcDbEntity
  8
M-EQUIP-SAFE
100
AcDbPolyline
 90
5
 70
1
 10
66.8
 20
8.8
 10
75.2
 20
8.8
 10
75.2
 20
15.2
 10
66.8
 20
15.2
 10
66.8
 20
8.8
  0
TEXT
  5
F8
330
17
100
AcDbEntity
  8
M-EQUIP-LABEL
100
AcDbText
 10
71.0
 20
12.0
 30
0.0
 40
0.45
  1
EQ-234: 液压站
 72
1
 11
71.0
 21
12.0
 31
0.0
100
AcDbText
 73
2
  0
LWPOLYLINE
  5
F9
330
17
100
AcDbEntity
  8
M-EQUIP
100
AcDbPolyline
 90
5
 70
1
 10
78.0
 20
10.0
 10
84.0
 20
10.0
 10
84.0
 20
14.0
 10
78.0
 20
14.0
 10
78.0
 20
10.0
  0
LWPOLYLINE
  5
FA
330
17
100
AcDbEntity
  8
M-EQUIP-SAFE
100
AcDbPolyline
 90
5
 70
1
 10
76.8
 20
8.8
 10
85.2
 20
8.8
 10
85.2
 20
15.2
 10
76.8
 20
15.2
 10
76.8
 20
8.8
  0
TEXT
  5
FB
330
17
100
AcDbEntity
  8
M-EQUIP-LABEL
100
AcDbText
 10
81.0
 20
12.0
 30
0.0
 40
0.45
  1
EQ-235: 气密测试台
 72
1
 11
81.0
 21
12.0
 31
0.0
100
AcDbText
 73
2
  0
LWPOLYLINE
  5
FC
330
17
100
AcDbEntity
  8
M-EQUIP
100
AcDbPolyline
 90
5
 70
1
 10
88.0
 20
10.0
 10
93.0
 20
10.0
 10
93.0
 20
13.0
 10
88.0
 20
13.0
 10
88.0
 20
10.0
  0
LWPOLYLINE
  5
FD
330
17
100
AcDbEntity
  8
M-EQUIP-SAFE
100
AcDbPolyline
 90
5
 70
1
 10
86.8
 20
8.8
 10
94.2
 20
8.8
 10
94.2
 20
14.2
 10
86.8
 20
14.2
 10
86.8
 20
8.8
  0
TEXT
  5
FE
330
17
100
AcDbEntity
  8
M-EQUIP-LABEL
100
AcDbText
 10
90.5
 20
11.5
 30
0.0
 40
0.45
  1
EQ-236: 气源站
 72
1
 11
90.5
 21
11.5
 31
0.0
100
AcDbText
 73
2
  0
LWPOLYLINE
  5
FF
330
17
100
AcDbEntity
  8
M-EQUIP
100
AcDbPolyline
 90
5
 70
1
 10
80.0
 20
62.0
 10
84.0
 20
62.0
 10
84.0
 20
65.0
 10
80.0
 20
65.0
 10
80.0
 20
62.0
  0
LWPOLYLINE
  5
100
330
17
100
AcDbEntity
  8
M-EQUIP-SAFE
100
AcDbPolyline
 90
5
 70
1
 10
78.8
 20
60.8
 10
85.2
 20
60.8
 10
85.2
 20
66.2
 10
78.8
 20
66.2
 10
78.8
 20
60.8
  0
TEXT
  5
101
330
17
100
AcDbEntity
  8
M-EQUIP-LABEL
100
AcDbText
 10
82.0
 20
63.5
 30
0.0
 40
0.45
  1
EQ-240: 工具库
 72
1
 11
82.0
 21
63.5
 31
0.0
100
AcDbText
 73
2
  0
LWPOLYLINE
  5
102
330
17
100
AcDbEntity
  8
M-EQUIP
100
AcDbPolyline
 90
5
 70
1
 10
88.0
 20
62.0
 10
92.0
 20
62.0
 10
92.0
 20
65.0
 10
88.0
 20
65.0
 10
88.0
 20
62.0
  0
LWPOLYLINE
  5
103
330
17
100
AcDbEntity
  8
M-EQUIP-SAFE
100
AcDbPolyline
 90
5
 70
1
 10
86.8
 20
60.8
 10
93.2
 20
60.8
 10
93.2
 20
66.2
 10
86.8
 20
66.2
 10
86.8
 20
60.8
  0
TEXT
  5
104
330
17
100
AcDbEntity
  8
M-EQUIP-LABEL
100
AcDbText
 10
90.0
 20
63.5
 30
0.0
 40
0.45
  1
EQ-241: 紧固件库
 72
1
 11
90.0
 21
63.5
 31
0.0
100
AcDbText
 73
2
  0
LWPOLYLINE
  5
105
330
17
100
AcDbEntity
  8
M-EQUIP
100
AcDbPolyline
 90
5
 70
1
 10
96.0
 20
62.0
 10
101.0
 20
62.0
 10
101.0
 20
66.0
 10
96.0
 20
66.0
 10
96.0
 20
62.0
  0
LWPOLYLINE
  5
106
330
17
100
AcDbEntity
  8
M-EQUIP-SAFE
100
AcDbPolyline
 90
5
 70
1
 10
94.8
 20
60.8
 10
102.2
 20
60.8
 10
102.2
 20
67.2
 10
94.8
 20
67.2
 10
94.8
 20
60.8
  0
TEXT
  5
107
330
17
100
AcDbEntity
  8
M-EQUIP-LABEL
100
AcDbText
 10
98.5
 20
64.0
 30
0.0
 40
0.45
  1
EQ-242: 工艺准备间
 72
1
 11
98.5
 21
64.0
 31
0.0
100
AcDbText
 73
2
  0
LWPOLYLINE
  5
108
330
17
100
AcDbEntity
  8
M-EQUIP
100
AcDbPolyline
 90
5
 70
1
 10
80.0
 20
26.0
 10
84.0
 20
26.0
 10
84.0
 20
30.0
 10
80.0
 20
30.0
 10
80.0
 20
26.0
  0
LWPOLYLINE
  5
109
330
17
100
AcDbEntity
  8
M-EQUIP-SAFE
100
AcDbPolyline
 90
5
 70
1
 10
78.8
 20
24.8
 10
85.2
 20
24.8
 10
85.2
 20
31.2
 10
78.8
 20
31.2
 10
78.8
 20
24.8
  0
TEXT
  5
10A
330
17
100
AcDbEntity
  8
M-EQUIP-LABEL
100
AcDbText
 10
82.0
 20
28.0
 30
0.0
 40
0.45
  1
EQ-243: 密封胶配制间
 72
1
 11
82.0
 21
28.0
 31
0.0
100
AcDbText
 73
2
  0
LWPOLYLINE
  5
10B
330
17
100
AcDbEntity
  8
M-EQUIP
100
AcDbPolyline
 90
5
 70
1
 10
104.0
 20
62.0
 10
109.0
 20
62.0
 10
109.0
 20
65.0
 10
104.0
 20
65.0
 10
104.0
 20
62.0
  0
LWPOLYLINE
  5
10C
330
17
100
AcDbEntity
  8
M-EQUIP-SAFE
100
AcDbPolyline
 90
5
 70
1
 10
102.8
 20
60.8
 10
110.2
 20
60.8
 10
110.2
 20
66.2
 10
102.8
 20
66.2
 10
102.8
 20
60.8
  0
TEXT
  5
10D
330
17
100
AcDbEntity
  8
M-EQUIP-LABEL
100
AcDbText
 10
106.5
 20
63.5
 30
0.0
 40
0.45
  1
EQ-244: 油品库
 72
1
 11
106.5
 21
63.5
 31
0.0
100
AcDbText
 73
2
  0
LWPOLYLINE
  5
10E
330
17
100
AcDbEntity
  8
M-EQUIP
100
AcDbPolyline
 90
5
 70
1
 10
10.0
 20
72.0
 10
14.0
 20
72.0
 10
14.0
 20
75.0
 10
10.0
 20
75.0
 10
10.0
 20
72.0
  0
LWPOLYLINE
  5
10F
330
17
100
AcDbEntity
  8
M-EQUIP-SAFE
100
AcDbPolyline
 90
5
 70
1
 10
8.8
 20
70.8
 10
15.2
 20
70.8
 10
15.2
 20
76.2
 10
8.8
 20
76.2
 10
8.8
 20
70.8
  0
TEXT
  5
110
330
17
100
AcDbEntity
  8
M-EQUIP-LABEL
100
AcDbText
 10
12.0
 20
73.5
 30
0.0
 40
0.45
  1
EQ-250: 蒙皮滚弯机
 72
1
 11
12.0
 21
73.5
 31
0.0
100
AcDbText
 73
2
  0
LWPOLYLINE
  5
111
330
17
100
AcDbEntity
  8
M-EQUIP
100
AcDbPolyline
 90
5
 70
1
 10
18.0
 20
72.0
 10
22.0
 20
72.0
 10
22.0
 20
75.0
 10
18.0
 20
75.0
 10
18.0
 20
72.0
  0
LWPOLYLINE
  5
112
330
17
100
AcDbEntity
  8
M-EQUIP-SAFE
100
AcDbPolyline
 90
5
 70
1
 10
16.8
 20
70.8
 10
23.2
 20
70.8
 10
23.2
 20
76.2
 10
16.8
 20
76.2
 10
16.8
 20
70.8
  0
TEXT
  5
113
330
17
100
AcDbEntity
  8
M-EQUIP-LABEL
100
AcDbText
 10
20.0
 20
73.5
 30
0.0
 40
0.45
  1
EQ-251: 拉形机
 72
1
 11
20.0
 21
73.5
 31
0.0
100
AcDbText
 73
2
  0
LWPOLYLINE
  5
114
330
17
100
AcDbEntity
  8
M-EQUIP
100
AcDbPolyline
 90
5
 70
1
 10
26.0
 20
72.0
 10
31.0
 20
72.0
 10
31.0
 20
75.0
 10
26.0
 20
75.0
 10
26.0
 20
72.0
  0
LWPOLYLINE
  5
115
330
17
100
AcDbEntity
  8
M-EQUIP-SAFE
100
AcDbPolyline
 90
5
 70
1
 10
24.8
 20
70.8
 10
32.2
 20
70.8
 10
32.2
 20
76.2
 10
24.8
 20
76.2
 10
24.8
 20
70.8
  0
TEXT
  5
116
330
17
100
AcDbEntity
  8
M-EQUIP-LABEL
100
AcDbText
 10
28.5
 20
73.5
 30
0.0
 40
0.45
  1
EQ-252: 喷丸机
 72
1
 11
28.5
 21
73.5
 31
0.0
100
AcDbText
 73
2
  0
LWPOLYLINE
  5
117
330
17
100
AcDbEntity
  8
M-EQUIP
100
AcDbPolyline
 90
5
 70
1
 10
35.0
 20
72.0
 10
39.0
 20
72.0
 10
39.0
 20
75.0
 10
35.0
 20
75.0
 10
35.0
 20
72.0
  0
LWPOLYLINE
  5
118
330
17
100
AcDbEntity
  8
M-EQUIP-SAFE
100
AcDbPolyline
 90
5
 70
1
 10
33.8
 20
70.8
 10
40.2
 20
70.8
 10
40.2
 20
76.2
 10
33.8
 20
76.2
 10
33.8
 20
70.8
  0
TEXT
  5
119
330
17
100
AcDbEntity
  8
M-EQUIP-LABEL
100
AcDbText
 10
37.0
 20
73.5
 30
0.0
 40
0.45
  1
EQ-253: 去毛刺台-1
 72
1
 11
37.0
 21
73.5
 31
0.0
100
AcDbText
 73
2
  0
LWPOLYLINE
  5
11A
330
17
100
AcDbEntity
  8
M-EQUIP
100
AcDbPolyline
 90
5
 70
1
 10
43.0
 20
72.0
 10
47.0
 20
72.0
 10
47.0
 20
75.0
 10
43.0
 20
75.0
 10
43.0
 20
72.0
  0
LWPOLYLINE
  5
11B
330
17
100
AcDbEntity
  8
M-EQUIP-SAFE
100
AcDbPolyline
 90
5
 70
1
 10
41.8
 20
70.8
 10
48.2
 20
70.8
 10
48.2
 20
76.2
 10
41.8
 20
76.2
 10
41.8
 20
70.8
  0
TEXT
  5
11C
330
17
100
AcDbEntity
  8
M-EQUIP-LABEL
100
AcDbText
 10
45.0
 20
73.5
 30
0.0
 40
0.45
  1
EQ-254: 去毛刺台-2
 72
1
 11
45.0
 21
73.5
 31
0.0
100
AcDbText
 73
2
  0
LWPOLYLINE
  5
11D
330
17
100
AcDbEntity
  8
M-EQUIP
100
AcDbPolyline
 90
5
 70
1
 10
51.0
 20
72.0
 10
54.0
 20
72.0
 10
54.0
 20
74.0
 10
51.0
 20
74.0
 10
51.0
 20
72.0
  0
LWPOLYLINE
  5
11E
330
17
100
AcDbEntity
  8
M-EQUIP-SAFE
100
AcDbPolyline
 90
5
 70
1
 10
49.8
 20
70.8
 10
55.2
 20
70.8
 10
55.2
 20
75.2
 10
49.8
 20
75.2
 10
49.8
 20
70.8
  0
TEXT
  5
11F
330
17
100
AcDbEntity
  8
M-EQUIP-LABEL
100
AcDbText
 10
52.5
 20
73.0
 30
0.0
 40
0.45
  1
EQ-255: 角磨站
 72
1
 11
52.5
 21
73.0
 31
0.0
100
AcDbText
 73
2
  0
LWPOLYLINE
  5
120
330
17
100
AcDbEntity
  8
M-EQUIP
100
AcDbPolyline
 90
5
 70
1
 10
58.0
 20
72.0
 10
63.0
 20
72.0
 10
63.0
 20
75.0
 10
58.0
 20
75.0
 10
58.0
 20
72.0
  0
LWPOLYLINE
  5
121
330
17
100
AcDbEntity
  8
M-EQUIP-SAFE
100
AcDbPolyline
 90
5
 70
1
 10
56.8
 20
70.8
 10
64.2
 20
70.8
 10
64.2
 20
76.2
 10
56.8
 20
76.2
 10
56.8
 20
70.8
  0
TEXT
  5
122
330
17
100
AcDbEntity
  8
M-EQUIP-LABEL
100
AcDbText
 10
60.5
 20
73.5
 30
0.0
 40
0.45
  1
EQ-256: 清洗线
 72
1
 11
60.5
 21
73.5
 31
0.0
100
AcDbText
 73
2
  0
LWPOLYLINE
  5
123
330
17
100
AcDbEntity
  8
M-EQUIP
100
AcDbPolyline
 90
5
 70
1
 10
67.0
 20
72.0
 10
71.0
 20
72.0
 10
71.0
 20
75.0
 10
67.0
 20
75.0
 10
67.0
 20
72.0
  0
LWPOLYLINE
  5
124
330
17
100
AcDbEntity
  8
M-EQUIP-SAFE
100
AcDbPolyline
 90
5
 70
1
 10
65.8
 20
70.8
 10
72.2
 20
70.8
 10
72.2
 20
76.2
 10
65.8
 20
76.2
 10
65.8
 20
70.8
  0
TEXT
  5
125
330
17
100
AcDbEntity
  8
M-EQUIP-LABEL
100
AcDbText
 10
69.0
 20
73.5
 30
0.0
 40
0.45
  1
EQ-257: 干燥炉
 72
1
 11
69.0
 21
73.5
 31
0.0
100
AcDbText
 73
2
  0
LWPOLYLINE
  5
126
330
17
100
AcDbEntity
  8
M-EQUIP
100
AcDbPolyline
 90
5
 70
1
 10
100.0
 20
10.0
 10
106.0
 20
10.0
 10
106.0
 20
14.0
 10
100.0
 20
14.0
 10
100.0
 20
10.0
  0
LWPOLYLINE
  5
127
330
17
100
AcDbEntity
  8
M-EQUIP-SAFE
100
AcDbPolyline
 90
5
 70
1
 10
98.8
 20
8.8
 10
107.2
 20
8.8
 10
107.2
 20
15.2
 10
98.8
 20
15.2
 10
98.8
 20
8.8
  0
TEXT
  5
128
330
17
100
AcDbEntity
  8
M-EQUIP-LABEL
100
AcDbText
 10
103.0
 20
12.0
 30
0.0
 40
0.45
  1
EQ-258: 总装夹具台
 72
1
 11
103.0
 21
12.0
 31
0.0
100
AcDbText
 73
2
  0
LWPOLYLINE
  5
129
330
17
100
AcDbEntity
  8
M-EQUIP
100
AcDbPolyline
 90
5
 70
1
 10
110.0
 20
10.0
 10
115.0
 20
10.0
 10
115.0
 20
13.0
 10
110.0
 20
13.0
 10
110.0
 20
10.0
  0
LWPOLYLINE
  5
12A
330
17
100
AcDbEntity
  8
M-EQUIP-SAFE
100
AcDbPolyline
 90
5
 70
1
 10
108.8
 20
8.8
 10
116.2
 20
8.8
 10
116.2
 20
14.2
 10
108.8
 20
14.2
 10
108.8
 20
8.8
  0
TEXT
  5
12B
330
17
100
AcDbEntity
  8
M-EQUIP-LABEL
100
AcDbText
 10
112.5
 20
11.5
 30
0.0
 40
0.45
  1
EQ-259: 调平台
 72
1
 11
112.5
 21
11.5
 31
0.0
100
AcDbText
 73
2
  0
LWPOLYLINE
  5
12C
330
17
100
AcDbEntity
  8
M-EQUIP
100
AcDbPolyline
 90
5
 70
1
 10
100.0
 20
26.0
 10
105.0
 20
26.0
 10
105.0
 20
30.0
 10
100.0
 20
30.0
 10
100.0
 20
26.0
  0
LWPOLYLINE
  5
12D
330
17
100
AcDbEntity
  8
M-EQUIP-SAFE
100
AcDbPolyline
 90
5
 70
1
 10
98.8
 20
24.8
 10
106.2
 20
24.8
 10
106.2
 20
31.2
 10
98.8
 20
31.2
 10
98.8
 20
24.8
  0
TEXT
  5
12E
330
17
100
AcDbEntity
  8
M-EQUIP-LABEL
100
AcDbText
 10
102.5
 20
28.0
 30
0.0
 40
0.45
  1
EQ-260: 工量具校验间
 72
1
 11
102.5
 21
28.0
 31
0.0
100
AcDbText
 73
2
  0
LWPOLYLINE
  5
12F
330
17
100
AcDbEntity
  8
M-EQUIP
100
AcDbPolyline
 90
5
 70
1
 10
110.0
 20
26.0
 10
115.0
 20
26.0
 10
115.0
 20
29.0
 10
110.0
 20
29.0
 10
110.0
 20
26.0
  0
LWPOLYLINE
  5
130
330
17
100
AcDbEntity
  8
M-EQUIP-SAFE
100
AcDbPolyline
 90
5
 70
1
 10
108.8
 20
24.8
 10
116.2
 20
24.8
 10
116.2
 20
30.2
 10
108.8
 20
30.2
 10
108.8
 20
24.8
  0
TEXT
  5
131
330
17
100
AcDbEntity
  8
M-EQUIP-LABEL
100
AcDbText
 10
112.5
 20
27.5
 30
0.0
 40
0.45
  1
EQ-261: 环境监测柜
 72
1
 11
112.5
 21
27.5
 31
0.0
100
AcDbText
 73
2
  0
LWPOLYLINE
  5
132
330
17
100
AcDbEntity
  8
M-EQUIP
100
AcDbPolyline
 90
5
 70
1
 10
120.0
 20
62.0
 10
125.0
 20
62.0
 10
125.0
 20
65.0
 10
120.0
 20
65.0
 10
120.0
 20
62.0
  0
LWPOLYLINE
  5
133
330
17
100
AcDbEntity
  8
M-EQUIP-SAFE
100
AcDbPolyline
 90
5
 70
1
 10
118.8
 20
60.8
 10
126.2
 20
60.8
 10
126.2
 20
66.2
 10
118.8
 20
66.2
 10
118.8
 20
60.8
  0
TEXT
  5
134
330
17
100
AcDbEntity
  8
M-EQUIP-LABEL
100
AcDbText
 10
122.5
 20
63.5
 30
0.0
 40
0.45
  1
EQ-262: 待检暂存区
 72
1
 11
122.5
 21
63.5
 31
0.0
100
AcDbText
 73
2
  0
LWPOLYLINE
  5
135
330
17
100
AcDbEntity
  8
M-EQUIP
100
AcDbPolyline
 90
5
 70
1
 10
120.0
 20
26.0
 10
125.0
 20
26.0
 10
125.0
 20
29.0
 10
120.0
 20
29.0
 10
120.0
 20
26.0
  0
LWPOLYLINE
  5
136
330
17
100
AcDbEntity
  8
M-EQUIP-SAFE
100
AcDbPolyline
 90
5
 70
1
 10
118.8
 20
24.8
 10
126.2
 20
24.8
 10
126.2
 20
30.2
 10
118.8
 20
30.2
 10
118.8
 20
24.8
  0
TEXT
  5
137
330
17
100
AcDbEntity
  8
M-EQUIP-LABEL
100
AcDbText
 10
122.5
 20
27.5
 30
0.0
 40
0.45
  1
EQ-263: 合格品暂存
 72
1
 11
122.5
 21
27.5
 31
0.0
100
AcDbText
 73
2
  0
LWPOLYLINE
  5
138
330
17
100
AcDbEntity
  8
M-EQUIP
100
AcDbPolyline
 90
5
 70
1
 10
120.0
 20
10.0
 10
125.0
 20
10.0
 10
125.0
 20
14.0
 10
120.0
 20
14.0
 10
120.0
 20
10.0
  0
LWPOLYLINE
  5
139
330
17
100
AcDbEntity
  8
M-EQUIP-SAFE
100
AcDbPolyline
 90
5
 70
1
 10
118.8
 20
8.8
 10
126.2
 20
8.8
 10
126.2
 20
15.2
 10
118.8
 20
15.2
 10
118.8
 20
8.8
  0
TEXT
  5
13A
330
17
100
AcDbEntity
  8
M-EQUIP-LABEL
100
AcDbText
 10
122.5
 20
12.0
 30
0.0
 40
0.45
  1
EQ-264: 电气配电柜
 72
1
 11
122.5
 21
12.0
 31
0.0
100
AcDbText
 73
2
  0
LWPOLYLINE
  5
13B
330
17
100
AcDbEntity
  8
M-EQUIP
100
AcDbPolyline
 90
5
 70
1
 10
130.0
 20
62.0
 10
135.0
 20
62.0
 10
135.0
 20
65.0
 10
130.0
 20
65.0
 10
130.0
 20
62.0
  0
LWPOLYLINE
  5
13C
330
17
100
AcDbEntity
  8
M-EQUIP-SAFE
100
AcDbPolyline
 90
5
 70
1
 10
128.8
 20
60.8
 10
136.2
 20
60.8
 10
136.2
 20
66.2
 10
128.8
 20
66.2
 10
128.8
 20
60.8
  0
TEXT
  5
13D
330
17
100
AcDbEntity
  8
M-EQUIP-LABEL
100
AcDbText
 10
132.5
 20
63.5
 30
0.0
 40
0.45
  1
EQ-265: 成品包装台
 72
1
 11
132.5
 21
63.5
 31
0.0
100
AcDbText
 73
2
  0
LWPOLYLINE
  5
13E
330
17
100
AcDbEntity
  8
M-EQUIP
100
AcDbPolyline
 90
5
 70
1
 10
130.0
 20
26.0
 10
135.0
 20
26.0
 10
135.0
 20
29.0
 10
130.0
 20
29.0
 10
130.0
 20
26.0
  0
LWPOLYLINE
  5
13F
330
17
100
AcDbEntity
  8
M-EQUIP-SAFE
100
AcDbPolyline
 90
5
 70
1
 10
128.8
 20
24.8
 10
136.2
 20
24.8
 10
136.2
 20
30.2
 10
128.8
 20
30.2
 10
128.8
 20
24.8
  0
TEXT
  5
140
330
17
100
AcDbEntity
  8
M-EQUIP-LABEL
100
AcDbText
 10
132.5
 20
27.5
 30
0.0
 40
0.45
  1
EQ-266: 零件清点区
 72
1
 11
132.5
 21
27.5
 31
0.0
100
AcDbText
 73
2
  0
LWPOLYLINE
  5
141
330
17
100
AcDbEntity
  8
M-EQUIP
100
AcDbPolyline
 90
5
 70
1
 10
130.0
 20
10.0
 10
135.0
 20
10.0
 10
135.0
 20
13.0
 10
130.0
 20
13.0
 10
130.0
 20
10.0
  0
LWPOLYLINE
  5
142
330
17
100
AcDbEntity
  8
M-EQUIP-SAFE
100
AcDbPolyline
 90
5
 70
1
 10
128.8
 20
8.8
 10
136.2
 20
8.8
 10
136.2
 20
14.2
 10
128.8
 20
14.2
 10
128.8
 20
8.8
  0
TEXT
  5
143
330
17
100
AcDbEntity
  8
M-EQUIP-LABEL
100
AcDbText
 10
132.5
 20
11.5
 30
0.0
 40
0.45
  1
EQ-267: 废料回收站
 72
1
 11
132.5
 21
11.5
 31
0.0
100
AcDbText
 73
2
  0
LWPOLYLINE
  5
144
330
17
100
AcDbEntity
  8
M-EQUIP
100
AcDbPolyline
 90
5
 70
1
 10
75.0
 20
72.0
 10
79.0
 20
72.0
 10
79.0
 20
75.0
 10
75.0
 20
75.0
 10
75.0
 20
72.0
  0
LWPOLYLINE
  5
145
330
17
100
AcDbEntity
  8
M-EQUIP-SAFE
100
AcDbPolyline
 90
5
 70
1
 10
73.8
 20
70.8
 10
80.2
 20
70.8
 10
80.2
 20
76.2
 10
73.8
 20
76.2
 10
73.8
 20
70.8
  0
TEXT
  5
146
330
17
100
AcDbEntity
  8
M-EQUIP-LABEL
100
AcDbText
 10
77.0
 20
73.5
 30
0.0
 40
0.45
  1
EQ-268: 铆钉预设台
 72
1
 11
77.0
 21
73.5
 31
0.0
100
AcDbText
 73
2
  0
LWPOLYLINE
  5
147
330
17
100
AcDbEntity
  8
M-EQUIP
100
AcDbPolyline
 90
5
 70
1
 10
83.0
 20
72.0
 10
88.0
 20
72.0
 10
88.0
 20
75.0
 10
83.0
 20
75.0
 10
83.0
 20
72.0
  0
LWPOLYLINE
  5
148
330
17
100
AcDbEntity
  8
M-EQUIP-SAFE
100
AcDbPolyline
 90
5
 70
1
 10
81.8
 20
70.8
 10
89.2
 20
70.8
 10
89.2
 20
76.2
 10
81.8
 20
76.2
 10
81.8
 20
70.8
  0
TEXT
  5
149
330
17
100
AcDbEntity
  8
M-EQUIP-LABEL
100
AcDbText
 10
85.5
 20
73.5
 30
0.0
 40
0.45
  1
EQ-269: 胶接固化箱
 72
1
 11
85.5
 21
73.5
 31
0.0
100
AcDbText
 73
2
  0
LWPOLYLINE
  5
14A
330
17
100
AcDbEntity
  8
M-EQUIP
100
AcDbPolyline
 90
5
 70
1
 10
92.0
 20
72.0
 10
97.0
 20
72.0
 10
97.0
 20
75.0
 10
92.0
 20
75.0
 10
92.0
 20
72.0
  0
LWPOLYLINE
  5
14B
330
17
100
AcDbEntity
  8
M-EQUIP-SAFE
100
AcDbPolyline
 90
5
 70
1
 10
90.8
 20
70.8
 10
98.2
 20
70.8
 10
98.2
 20
76.2
 10
90.8
 20
76.2
 10
90.8
 20
70.8
  0
TEXT
  5
14C
330
17
100
AcDbEntity
  8
M-EQUIP-LABEL
100
AcDbText
 10
94.5
 20
73.5
 30
0.0
 40
0.45
  1
EQ-270: 保温箱
 72
1
 11
94.5
 21
73.5
 31
0.0
100
AcDbText
 73
2
  0
LWPOLYLINE
  5
14D
330
17
100
AcDbEntity
  8
M-EQUIP
100
AcDbPolyline
 90
5
 70
1
 10
100.0
 20
72.0
 10
105.0
 20
72.0
 10
105.0
 20
75.0
 10
100.0
 20
75.0
 10
100.0
 20
72.0
  0
LWPOLYLINE
  5
14E
330
17
100
AcDbEntity
  8
M-EQUIP-SAFE
100
AcDbPolyline
 90
5
 70
1
 10
98.8
 20
70.8
 10
106.2
 20
70.8
 10
106.2
 20
76.2
 10
98.8
 20
76.2
 10
98.8
 20
70.8
  0
TEXT
  5
14F
330
17
100
AcDbEntity
  8
M-EQUIP-LABEL
100
AcDbText
 10
102.5
 20
73.5
 30
0.0
 40
0.45
  1
EQ-271: 工装存放架
 72
1
 11
102.5
 21
73.5
 31
0.0
100
AcDbText
 73
2
  0
LWPOLYLINE
  5
150
330
17
100
AcDbEntity
  8
M-EQUIP
100
AcDbPolyline
 90
5
 70
1
 10
110.0
 20
72.0
 10
116.0
 20
72.0
 10
116.0
 20
76.0
 10
110.0
 20
76.0
 10
110.0
 20
72.0
  0
LWPOLYLINE
  5
151
330
17
100
AcDbEntity
  8
M-EQUIP-SAFE
100
AcDbPolyline
 90
5
 70
1
 10
108.8
 20
70.8
 10
117.2
 20
70.8
 10
117.2
 20
77.2
 10
108.8
 20
77.2
 10
108.8
 20
70.8
  0
TEXT
  5
152
330
17
100
AcDbEntity
  8
M-EQUIP-LABEL
100
AcDbText
 10
113.0
 20
74.0
 30
0.0
 40
0.45
  1
EQ-272: AGV充电位
 72
1
 11
113.0
 21
74.0
 31
0.0
100
AcDbText
 73
2
  0
LWPOLYLINE
  5
153
330
17
100
AcDbEntity
  8
M-EQUIP
100
AcDbPolyline
 90
5
 70
1
 10
140.0
 20
42.0
 10
145.0
 20
42.0
 10
145.0
 20
48.0
 10
140.0
 20
48.0
 10
140.0
 20
42.0
  0
LWPOLYLINE
  5
154
330
17
100
AcDbEntity
  8
M-EQUIP-SAFE
100
AcDbPolyline
 90
5
 70
1
 10
138.8
 20
40.8
 10
146.2
 20
40.8
 10
146.2
 20
49.2
 10
138.8
 20
49.2
 10
138.8
 20
40.8
  0
TEXT
  5
155
330
17
100
AcDbEntity
  8
M-EQUIP-LABEL
100
AcDbText
 10
142.5
 20
45.0
 30
0.0
 40
0.45
  1
EQ-273: 物料电梯
 72
1
 11
142.5
 21
45.0
 31
0.0
100
AcDbText
 73
2
  0
CIRCLE
  5
156
330
17
100
AcDbEntity
  8
S-ZONE-NDT
100
AcDbCircle
 10
33.0
 20
28.0
 30
0.0
 40
15.0
  0
TEXT
  5
157
330
17
100
AcDbEntity
  8
S-ZONE-NDT
100
AcDbText
 10
33.0
 20
44.0
 30
0.0
 40
0.6
  1
X射线辐射禁区(R=15m)
 72
1
 11
33.0
 21
44.0
 31
0.0
100
AcDbText
 73
2
  0
LWPOLYLINE
  5
158
330
17
100
AcDbEntity
  8
S-ZONE-CLEAN
100
AcDbPolyline
 90
5
 70
0
 10
43.0
 20
24.0
 10
55.0
 20
24.0
 10
55.0
 20
34.0
 10
43.0
 20
34.0
 10
43.0
 20
24.0
  0
TEXT
  5
159
330
17
100
AcDbEntity
  8
S-ZONE-CLEAN
100
AcDbText
 10
49.0
 20
33.5
 30
0.0
 40
0.5
  1
恒温检测区 20±0.5°C
 72
1
 11
49.0
 21
33.5
 31
0.0
100
AcDbText
 73
2
  0
LWPOLYLINE
  5
15A
330
17
100
AcDbEntity
  8
P-FLOW-AGV
100
AcDbPolyline
 90
5
 70
0
 10
3.0
 20
56.0
 10
147.0
 20
56.0
 10
147.0
 20
60.0
 10
3.0
 20
60.0
 10
3.0
 20
56.0
  0
TEXT
  5
15B
330
17
100
AcDbEntity
  8
P-FLOW-AGV
100
AcDbText
 10
75.0
 20
58.0
 30
0.0
 40
0.5
  1
AGV大件转运通道(4m宽, 50t承重)
 72
1
 11
75.0
 21
58.0
 31
0.0
100
AcDbText
 73
2
  0
LWPOLYLINE
  5
15C
330
17
100
AcDbEntity
  8
S-ZONE-FIRE
100
AcDbPolyline
 90
5
 70
0
 10
50.0
 20
0.0
 10
54.0
 20
0.0
 10
54.0
 20
80.0
 10
50.0
 20
80.0
 10
50.0
 20
0.0
  0
LWPOLYLINE
  5
15D
330
17
100
AcDbEntity
  8
S-ZONE-FIRE
100
AcDbPolyline
 90
5
 70
0
 10
100.0
 20
0.0
 10
104.0
 20
0.0
 10
104.0
 20
80.0
 10
100.0
 20
80.0
 10
100.0
 20
0.0
  0
ENDSEC
  0
SECTION
  2
OBJECTS
  0
DICTIONARY
  5
A
330
0
100
AcDbDictionary
281
1
  3
ACAD_COLOR
350
B
  3
ACAD_GROUP
350
C
  3
ACAD_LAYOUT
350
D
  3
ACAD_MATERIAL
350
E
  3
ACAD_MLEADERSTYLE
350
F
  3
ACAD_MLINESTYLE
350
10
  3
ACAD_PLOTSETTINGS
350
11
  3
ACAD_PLOTSTYLENAME
350
12
  3
ACAD_SCALELIST
350
14
  3
ACAD_TABLESTYLE
350
15
  3
ACAD_VISUALSTYLE
350
16
  3
EZDXF_META
350
2D
  0
DICTIONARY
  5
B
330
A
100
AcDbDictionary
281
1
  0
DICTIONARY
  5
C
330
A
100
AcDbDictionary
281
1
  0
DICTIONARY
  5
D
330
A
100
AcDbDictionary
281
1
  3
Model
350
1A
  3
Layout1
350
1E
  0
DICTIONARY
  5
E
330
A
100
AcDbDictionary
281
1
  3
ByBlock
350
1F
  3
ByLayer
350
20
  3
Global
350
21
  0
DICTIONARY
  5
F
330
A
100
AcDbDictionary
281
1
  3
Standard
350
2C
  0
DICTIONARY
  5
10
330
A
100
AcDbDictionary
281
1
  3
Standard
350
22
  0
DICTIONARY
  5
11
330
A
100
AcDbDictionary
281
1
  0
ACDBDICTIONARYWDFLT
  5
12
330
A
100
AcDbDictionary
281
1
  3
Normal
350
13
100
AcDbDictionaryWithDefault
340
13
  0
ACDBPLACEHOLDER
  5
13
330
12
  0
DICTIONARY
  5
14
330
A
100
AcDbDictionary
281
1
  0
DICTIONARY
  5
15
330
A
100
AcDbDictionary
281
1
  0
DICTIONARY
  5
16
330
A
100
AcDbDictionary
281
1
  0
LAYOUT
  5
1A
330
D
100
AcDbPlotSettings
  1

  4
A3
  6

 40
7.5
 41
20.0
 42
7.5
 43
20.0
 44
420.0
 45
297.0
 46
0.0
 47
0.0
 48
0.0
 49
0.0
140
0.0
141
0.0
142
1.0
143
1.0
 70
1024
 72
1
 73
0
 74
5
  7

 75
16
 76
0
 77
2
 78
300
147
1.0
148
0.0
149
0.0
100
AcDbLayout
  1
Model
 70
1
 71
0
 10
0.0
 20
0.0
 11
420.0
 21
297.0
 12
0.0
 22
0.0
 32
0.0
 14
1e+20
 24
1e+20
 34
1e+20
 15
-1e+20
 25
-1e+20
 35
-1e+20
146
0.0
 13
0.0
 23
0.0
 33
0.0
 16
1.0
 26
0.0
 36
0.0
 17
0.0
 27
1.0
 37
0.0
 76
1
330
17
  0
LAYOUT
  5
1E
330
D
100
AcDbPlotSettings
  1

  4
A3
  6

 40
7.5
 41
20.0
 42
7.5
 43
20.0
 44
420.0
 45
297.0
 46
0.0
 47
0.0
 48
0.0
 49
0.0
140
0.0
141
0.0
142
1.0
143
1.0
 70
0
 72
1
 73
0
 74
5
  7

 75
16
 76
0
 77
2
 78
300
147
1.0
148
0.0
149
0.0
100
AcDbLayout
  1
Layout1
 70
1
 71
1
 10
0.0
 20
0.0
 11
420.0
 21
297.0
 12
0.0
 22
0.0
 32
0.0
 14
1e+20
 24
1e+20
 34
1e+20
 15
-1e+20
 25
-1e+20
 35
-1e+20
146
0.0
 13
0.0
 23
0.0
 33
0.0
 16
1.0
 26
0.0
 36
0.0
 17
0.0
 27
1.0
 37
0.0
 76
1
330
1B
  0
MATERIAL
  5
1F
102
{ACAD_REACTORS
330
E
102
}
330
E
100
AcDbMaterial
  1
ByBlock
  2

 70
0
 40
1.0
 71
1
 41
1.0
 91
-1023410177
 42
1.0
 72
1
  3

 73
1
 74
1
 75
1
 44
0.5
 73
0
 45
1.0
 46
1.0
 77
1
  4

 78
1
 79
1
170
1
 48
1.0
171
1
  6

172
1
173
1
174
1
140
1.0
141
1.0
175
1
  7

176
1
177
1
178
1
143
1.0
179
1
  8

270
1
271
1
272
1
145
1.0
146
1.0
273
1
  9

274
1
275
1
276
1
 42
1.0
 72
1
  3

 73
1
 74
1
 75
1
 94
63
  0
MATERIAL
  5
20
102
{ACAD_REACTORS
330
E
102
}
330
E
100
AcDbMaterial
  1
ByLayer
  2

 70
0
 40
1.0
 71
1
 41
1.0
 91
-1023410177
 42
1.0
 72
1
  3

 73
1
 74
1
 75
1
 44
0.5
 73
0
 45
1.0
 46
1.0
 77
1
  4

 78
1
 79
1
170
1
 48
1.0
171
1
  6

172
1
173
1
174
1
140
1.0
141
1.0
175
1
  7

176
1
177
1
178
1
143
1.0
179
1
  8

270
1
271
1
272
1
145
1.0
146
1.0
273
1
  9

274
1
275
1
276
1
 42
1.0
 72
1
  3

 73
1
 74
1
 75
1
 94
63
  0
MATERIAL
  5
21
102
{ACAD_REACTORS
330
E
102
}
330
E
100
AcDbMaterial
  1
Global
  2

 70
0
 40
1.0
 71
1
 41
1.0
 91
-1023410177
 42
1.0
 72
1
  3

 73
1
 74
1
 75
1
 44
0.5
 73
0
 45
1.0
 46
1.0
 77
1
  4

 78
1
 79
1
170
1
 48
1.0
171
1
  6

172
1
173
1
174
1
140
1.0
141
1.0
175
1
  7

176
1
177
1
178
1
143
1.0
179
1
  8

270
1
271
1
272
1
145
1.0
146
1.0
273
1
  9

274
1
275
1
276
1
 42
1.0
 72
1
  3

 73
1
 74
1
 75
1
 94
63
  0
MLINESTYLE
  5
22
102
{ACAD_REACTORS
330
10
102
}
330
10
100
AcDbMlineStyle
  2
Standard
 70
0
  3

 62
256
 51
90.0
 52
90.0
 71
2
 49
0.5
 62
256
  6
BYLAYER
 49
-0.5
 62
256
  6
BYLAYER
  0
MLEADERSTYLE
  5
2C
102
{ACAD_REACTORS
330
F
102
}
330
F
100
AcDbMLeaderStyle
179
2
170
2
171
1
172
0
 90
2
 40
0.0
 41
0.0
173
1
 91
-1056964608
 92
-2
290
1
 42
2.0
291
1
 43
8.0
  3
Standard
 44
4.0
300

342
29
174
1
175
1
176
0
178
1
 93
-1056964608
 45
4.0
292
0
297
0
 46
4.0
 94
-1056964608
 47
1.0
 49
1.0
140
1.0
294
1
141
0.0
177
0
142
1.0
295
0
296
0
143
3.75
271
0
272
9
273
9
  0
DICTIONARY
  5
2D
330
A
100
AcDbDictionary
280
1
281
1
  3
CREATED_BY_EZDXF
350
2E
  3
WRITTEN_BY_EZDXF
350
160
  0
DICTIONARYVAR
  5
2E
330
2D
100
DictionaryVariables
280
0
  1
1.4.3 @ 2026-04-10T03:48:17.097223+00:00
  0
DICTIONARYVAR
  5
160
330
2D
100
DictionaryVariables
280
0
  1
1.4.3 @ 2026-04-10T03:48:17.104668+00:00
  0
ENDSEC
  0
EOF
